<?xml version="1.0" encoding="utf-8"?>
<!-- Generator: Adobe Illustrator 19.1.0, SVG Export Plug-In . SVG Version: 6.00 Build 0)  -->
<svg version="1.1" id="Layer_1" xmlns="http://www.w3.org/2000/svg" xmlns:xlink="http://www.w3.org/1999/xlink" x="0px" y="0px"
	 viewBox="0 0 100.4 100.1" style="enable-background:new 0 0 100.4 100.1;" xml:space="preserve">
<style type="text/css">
	.st0{fill:#1C1C1C;}
</style>
<g>
	<path class="st0" d="M20.5,73.4c0.2,0.4,0.6,0.6,1.1,0.7c0.4,0.2,0.7,0.5,1.1,0.5c0.8,0.2,1.7-0.4,2-1.1c0.4-0.8,0.4-1.7-0.2-2.4
		c-0.5-0.6-1.7-1.2-2.4-0.9c-0.6,0.2-1.2,0.5-1.5,0.9C19.9,71.8,20,72.7,20.5,73.4L20.5,73.4z"/>
	<path class="st0" d="M30.4,75.5c1.3,0,2.4-0.9,2.1-2.4c0.1,0.7,0-0.4,0-0.5c-0.1-0.4-0.2-0.7-0.5-0.9c-0.4-0.4-0.8-0.7-1.4-0.7
		c-0.7,0-1.4,0.2-1.8,0.8c-0.1,0.2-0.2,0.4-0.2,0.6c-0.4,0.4-0.5,0.9-0.4,1.4C28.3,74.9,29.5,75.5,30.4,75.5L30.4,75.5z"/>
	<path class="st0" d="M32.6,72.7v0.1V72.7z"/>
	<path class="st0" d="M19.6,60.3c-0.8-0.2-1.7-0.1-2.2,0.2c-0.4,0.1-0.6,0.2-0.8,0.5c-0.8,0.7-0.9,1.9-0.6,2.8
		c0.1,0.4,0.4,0.6,0.6,0.8c0.1,0.2,0.2,0.5,0.5,0.6c0.5,0.5,0.9,0.7,1.5,0.6c0.7,0.2,1.5,0.1,2-0.6c1.2-0.5,1.9-1.9,1.2-3.1
		C21.1,61.3,20.5,60.6,19.6,60.3L19.6,60.3z"/>
	<g>
		<path class="st0" d="M50.8,21l0.5,0.1L50.8,21z"/>
		<path class="st0" d="M99.7,20.2c-7.3-1.9-11-9-18-11.7c-5.8-2.2-11.2,0.4-14.8,5c-0.2,0-0.5,0.1-0.7,0.1c-1.2,0.2-2.4,0.2-3.5,0.2
			c-0.5,0-1.1-0.1-1.5-0.1c0.6-1.2,0.9-2.5,1.3-3.8C63.6,5.1,61,0.2,55.6,0c-0.4,0-0.6,0.1-0.8,0.2c-0.1,0.1-0.4,0.1-0.4,0.4v0.1
			c-0.2,0.4-0.4,0.7-0.2,0.9c-0.4,2.1,0.2,4.4,0.4,6.6c0.1,3.1-0.7,5.3-2,7.8h-0.1c-1.5-0.5-2.6-0.8-3.1-0.9
			c-5.4-1.3-11.3,0.2-16.3,4.4c-3.8,3.1-5.7,7.1-7.6,11.1c-0.8,1.7-1.5,3.3-2.5,4.8c-2,3.4-5.7,6.3-9.2,8.9c-0.9,0.7-1.8,1.3-2.7,2
			C0.6,54.6-2.5,64.3,2,74.9c3.5,8.3,12.5,16.8,21,19.9c2.2,0.8,4.4,1.3,6.5,1.3c1.7,0.8,3.3,1.5,4.8,2.1l0,0
			c7.8,2.8,14.7,2.5,21.2-0.9C66.4,91.4,71.8,79,68.6,67.2c-0.5-1.8-1.1-3.4-1.7-5.1c-0.5-1.3-0.9-2.6-1.3-3.8L65,55.9
			c-0.2-0.9-0.2-1.8-0.4-2.5c-0.1-3.1,0.2-6,0.6-9.3c0.1-1.3,0.4-2.6,0.5-3.9c0.4-4,1.5-16.3-7.4-21.2c0.6-0.8,1.1-1.7,1.5-2.5
			c1.2,0.1,2.2,0.2,3.3,0.2c1.5,0.1,3.9,0.2,5.3-0.8c2.6,8.9,18.2,10.8,26.8,6.4c0.4-0.1,0.2-0.6,0-0.8c1.1,0.2,2.4,0.6,4.1,0.6
			C100.4,22,100.8,20.4,99.7,20.2z M61.1,39.5c-0.1,1.3-0.2,2.5-0.5,3.8c-0.4,3.3-0.8,6.6-0.7,10c0,0.9,0.1,2,0.5,3.3l0.6,2.6
			c0.5,1.4,0.9,2.8,1.4,4.1c0.6,1.7,1.2,3.2,1.5,4.7c2.6,9.7-1.8,19.9-10.8,24.7c-5.2,2.8-10.8,3.1-17.3,0.7
			c-1.5-0.6-3.1-1.2-4.8-2.1l-0.5-0.2h-0.6c-1.8,0-3.5-0.4-5.4-1.1C16.3,87,8.8,78.9,6.2,72.7C2.5,64,4.9,56.6,13.8,49.6
			c0.8-0.7,1.7-1.3,2.6-2c3.8-2.8,7.9-6,10.5-10.3c0.9-1.7,1.9-3.4,2.7-5.2c1.8-3.7,3.4-7.1,6.3-9.5c3.8-3.1,8.3-4.4,12.2-3.4
			c0.4,0.1,1.8,0.5,2.7,0.8c0.6,0.2,1.3,0.4,1.8,0.6l3.2,2C60.2,25.3,61.9,30.6,61.1,39.5z"/>
	</g>
</g>
<g>
</g>
<g>
</g>
<g>
</g>
<g>
</g>
<g>
</g>
<g>
</g>
<g>
</g>
<g>
</g>
<g>
</g>
<g>
</g>
<g>
</g>
<g>
</g>
<g>
</g>
<g>
</g>
<g>
</g>
</svg>
