<?xml version="1.0" encoding="utf-8"?>
<!-- Generator: Adobe Illustrator 19.1.0, SVG Export Plug-In . SVG Version: 6.00 Build 0)  -->
<svg version="1.1" id="Layer_1" xmlns="http://www.w3.org/2000/svg" xmlns:xlink="http://www.w3.org/1999/xlink" x="0px" y="0px"
	 viewBox="0 0 125.9 67.3" style="enable-background:new 0 0 125.9 67.3;" xml:space="preserve">
<style type="text/css">
	.st0{fill:#FFFFFF;}
</style>
<g>
	<path class="st0" d="M53.7,37.3c0.4,0.8,0.7,1.6,1,2.5s0.3,1.9,1.2,2.4c0.3,0.1,0.7,0.1,0.9-0.1c1.7-1.6-0.9-4.4-2-5.6
		C54.3,36,53.4,36.7,53.7,37.3z"/>
	<path class="st0" d="M123.8,6.2c-0.3,0.1-0.6,0.1-0.9,0.2c-2,0.5-4.2,0.7-6.3,1.2c0.2-0.2,0.3-0.5,0.5-0.7c0,0,0,0,0-0.1l0.1-0.1
		c0.9-1,1.8-2,2.5-3.1c1.2-1.9-1.3-4-2.7-2.2c-0.3,0.5-0.7,0.9-1,1.4c-0.3,0.4-0.7,0.8-1,1.2c0-0.8-1-1.6-1.8-0.9
		c-2.3,2.1-3.7,5.4-4.7,8.5c-1.2,1.2-2.3,2.6-3.4,3.9c-1.8,2.2-4.4,4.1-6.5,6.1c-2.1,1.9-4.4,3.2-7.2,3.5c-2.8,0.3-5.3,0.3-7.9,1.6
		c-2.2,1.1-4,3-5.9,4.5c-2.4,1.9-5.6,2.1-8.4,3.1c-0.2-0.5-0.4-0.9-0.5-1.2l-0.1-0.2c2.7-0.6,5.9-2.8,7.8-4.1
		c1.8-1.2,3.6-2.4,5.4-3.7c0.1,0,0.2-0.1,0.3-0.2c0.5-0.3,1-0.6,1.6-0.9c4.3-0.7,8.6-1.5,12.4-3.9c0.8-0.5,1-1.3,0.9-2.1
		c0.8-0.3,1.6-0.6,2.3-1c0.9-0.4,1.4-1.6,1.1-2.5c0.4-0.1,0.7-0.3,1.1-0.4c0.8-0.3,1.1-1,1.1-1.8c0.1-0.1,0.3-0.1,0.4-0.2
		c0.8-0.4,1.2-1.3,1-2.1c0.1,0,0.3,0,0.4,0c1.7,0,1.7-2.9,0-3c-1.6,0-2.9,0.4-4.2,1c1.8-2.2,3.7-4.4,5.8-6.5
		c0.7-0.7,0.1-1.7-0.8-1.4c-2.8,0.8-4.9,2.7-6.8,4.9c0.2-0.4,0.4-0.7,0.6-1.1l0,0C99.6,2,97.1,0.2,96,2c-0.1,0.1-0.2,0.3-0.2,0.4
		l0,0c0,0,0,0,0,0.1c-0.2,0.3-0.4,0.7-0.6,1c-1-0.9-2.6-0.8-3.2,0.6c-0.4,0.9-0.8,1.8-1.2,2.8c-0.6,0-1.3,0.2-1.7,0.8
		c-0.6,0.9-1.1,1.8-1.6,2.7c-0.6,0-1.3,0.3-1.9,0.9c-0.2,0.2-0.4,0.5-0.6,0.7c-1.3-0.8-3.1-0.7-3.8,1.1c-0.9,2.7-1.5,5.4-2.3,8.1
		c0,0.1,0,0.2-0.1,0.2c-0.7,0.7-1.4,1.3-2,1.9c-1.9,1.7-3.8,3.4-5.8,5c-0.9,0.7-1.9,1-2.9,1.5C67.2,26,64.7,23,61,21.6
		c-5.6-2.1-11.7,0.5-15.9,3.1c-5.7,3.5-10.8,8-15.7,12.3c-1.7,1.5-3.4,2.9-5.1,4.4L2,59.9l-0.3,0.3c-0.3,0.4-0.5,0.8-0.6,1.2
		c-0.6,0.5-1,1.2-1.1,2c-0.2,1.7,1,3.5,2.7,3.8c3,0.6,12.2-1.3,25-4.4c1.1-0.3,2-0.5,2.6-0.6c8.6-1.9,16.5-4.2,24.1-6.9l1.3-0.5
		c4.3-1.5,7.5-2.6,11.3-6c2.2-1.9,3.6-4.5,4-7.1c0.3-1.8,0-3.5-0.7-5c3.6-0.5,6.8-2,9.9-3.9c0,1.5,1.7,2.9,3.1,1.7
		c1.3-1.2,2.9-0.9,4.4-0.9c0.5,0,0.8-0.2,1.1-0.4c1.2,0.3,2.4,0.7,3.7,0.8c0.8,0.1,1.6-0.4,1.8-1.1c0.6,0.2,1.2,0.3,1.9,0.3
		c1.5,0.1,2.4-1.2,2.1-2.4c0.6,0.1,1.2,0.3,1.8,0.4c1.3,0.3,2.2-1,2-2.1c0.5,0,0.9,0,1.4,0c1.6,0,2.4-1.5,1.8-2.6
		c0.8-0.1,1.7-0.2,2.5-0.4c1.1-0.3,1.8-1.7,1.3-2.6c0.5-0.1,1-0.2,1.5-0.4c1-0.3,1.2-1.4,0.8-2.3c0.5-0.1,1-0.1,1.6-0.1
		c1.3-0.1,1.6-1.8,0.9-2.6c0.1,0,0.3,0,0.4,0c1.2,0.1,1.7-1.4,1.1-2.1c0.3-0.1,0.5-0.2,0.8-0.2c0.8-0.2,1-1.3,0.6-2
		c0.7-0.1,1.4-0.3,2.1-0.4c1-0.1,1.4-1.2,1.2-2c0.5-0.3,1.1-0.5,1.6-0.7c1-0.3,2-0.5,3-0.8C126.8,9.3,125.9,5.8,123.8,6.2z
		 M67.4,41.2c-0.2,1.8-1.3,3.5-2.8,4.9c-3.3,2.9-5.9,3.8-10.1,5.3l-1.3,0.5c-1.4,0.5-2.9,1-4.3,1.5c-0.1-0.4-0.2-0.8-0.3-1.2
		c-0.6-2-1.9-3.6-3.4-4.9c-0.7-0.6-1.9,0.3-1.4,1.1c0.8,1.5,1.4,3,1.8,4.7c0.1,0.4,0.1,0.9,0.2,1.4c-3.6,1.1-7.3,2.2-11.2,3.1
		c0-0.1,0-0.1,0-0.2c-0.2-0.8-0.5-1.4-1-2c-0.5-0.7-1.3-1-1.9-1.6c-0.7-0.7-1.6,0.3-1.4,1.1c0.2,0.6,0,1.2,0.1,1.8s0.2,1.2,0.4,1.7
		v0.1c-0.4,0.1-0.8,0.2-1.3,0.3c-0.6,0.1-1.6,0.4-2.7,0.6c-4.5,1.1-17.1,4-21.9,4.3l-0.2-1.1l12.9-10.7c0.1,0.1,0.2,0.3,0.2,0.4
		c0.5,0.9,1.4,1.4,2.4,1c0.9-0.4,1.5-1.5,1-2.5c-0.2-0.5-0.4-1-0.7-1.5l6.1-5.1c1.5-1.3,3-2.6,4.5-3.9c0,0.1,0.1,0.1,0.2,0.2
		c1,1.3,1.9,2.7,2.8,4c0.8,1.2,2.5-0.1,1.8-1.4c-0.8-1.4-1.7-2.8-2.5-4.2c-0.1-0.1-0.1-0.2-0.2-0.3c2.3-2,4.7-4,7.1-5.9
		c0.2,0.2,0.5,0.5,0.7,0.7c0.8,0.9,1.6,1.8,2.3,2.8v0.1c-0.1,0.5,0.4,0.7,0.7,0.6c0.7,0.4,1.6-0.4,1.4-1.3c-0.5-1.7-1.2-3.4-2.3-4.9
		c1.3-0.9,2.5-1.8,3.8-2.6c0.7-0.4,1.4-0.8,2.2-1.2c0.3,0.3,0.7,0.7,0.9,1c0.4,0.6,0.7,1.3,1.1,1.9c0.5,0.6,1,1.2,1.4,1.9
		c0.3,0.4,1.1,0.3,1.1-0.3c0-1.9-0.2-3.3-1.2-5c-0.1-0.2-0.3-0.5-0.5-0.8c2.5-0.8,5.1-1.2,7.5-0.3c2.6,1,4.4,3.2,4.8,6l0.7,2.8v0.1
		c0.3,0.9,1.1,2.8,1.5,3.6l0.4,0.5C67.4,39.2,67.5,40.2,67.4,41.2z"/>
</g>
<g>
</g>
<g>
</g>
<g>
</g>
<g>
</g>
<g>
</g>
<g>
</g>
<g>
</g>
<g>
</g>
<g>
</g>
<g>
</g>
<g>
</g>
<g>
</g>
<g>
</g>
<g>
</g>
<g>
</g>
</svg>
