<?xml version="1.0" encoding="utf-8"?>
<!-- Generator: Adobe Illustrator 19.1.0, SVG Export Plug-In . SVG Version: 6.00 Build 0)  -->
<svg version="1.1" id="Layer_1" xmlns="http://www.w3.org/2000/svg" xmlns:xlink="http://www.w3.org/1999/xlink" x="0px" y="0px"
	 viewBox="0 0 63.4 64.4" style="enable-background:new 0 0 63.4 64.4;" xml:space="preserve">
<style type="text/css">
	.st0{fill:#FFFFFF;}
</style>
<g>
	<path class="st0" d="M59.8,5c-2.7-2.8-7.1-3.3-8.8-3.4c-0.1,0-0.2,0-0.3,0c-0.7,0-9.4-0.5-18.8-1C26.3,0.3,21.4,0.1,17.6,0
		C11.9-0.2,7.7,1.1,4.9,3.8C2.2,6.4,2,9.5,2,10.3C1.9,12,1,23.7,1.2,26.8c0.1,1.8-0.2,8.1-0.6,14.3c-0.2,3.4-0.4,7-0.6,10.1
		c-0.3,6.3,4,10.3,11.5,10.7c0.8,0,1.4,0,1.7,0c1.2,0.2,5.5,0.9,12,1.2c1.7,0.1,3.4,0.1,5.1,0.2c1.2,0,2.3,0,3.3,0.1
		c2.5,0.1,4,0.3,5.4,0.5c1.3,0.2,2.5,0.3,4.1,0.4c1.7,0.1,3.7,0.1,6.2-0.1c12-0.6,12.4-11.3,12.4-11.4c0.2-6,0.6-18.1,0.9-20.5
		c0.3-3.2,0.7-10.7,0.7-15.1C63.5,13.1,63.2,8.5,59.8,5z M50.5,6.6h0.3c1.8,0.1,4.3,0.6,5.5,1.9c1.9,1.9,2.2,4.6,2.2,8.6
		c0,2.2-0.1,5.1-0.2,7.9c-0.7,0-1.5-0.1-2.3-0.2c-0.5-0.1-2-0.2-9.5-0.6c-2.7-4.9-7.8-8.4-13.8-8.7c-5-0.2-9.7,1.8-12.9,5.2
		l0.8-15.6c3.2,0.1,7,0.3,11.2,0.5C41.4,6.1,50.4,6.6,50.5,6.6z M32.4,18.9c7.3,0.4,13,6.6,12.6,13.9s-6.6,13-13.9,12.6
		s-13-6.6-12.6-13.9S25.1,18.5,32.4,18.9z M17.4,5c0.2,0,0.4,0,0.6,0l-0.9,17.9l-5.2-0.3l0.8-17.3C14.1,5.1,15.6,5,17.4,5z
		 M6.9,10.4c0-0.1,0-1.7,1.5-3.1c0.5-0.5,1.1-0.8,1.7-1.1L9.3,22.6l-3.2-0.2c0.2-3.9,0.5-9.3,0.7-11.8v-0.1L6.9,10.4z M56.9,52.6
		c0,1-0.6,6.2-7.6,6.5c-2.3,0.1-4.1,0.1-5.7,0.1c-1.4-0.1-2.5-0.2-3.7-0.4c-1.5-0.2-3.2-0.4-5.8-0.5c-1.1-0.1-2.2-0.1-3.5-0.1
		c-1.7,0-3.3-0.1-5-0.1C18.5,57.8,14,56.9,14,56.9l-0.3-0.1h-0.3c0,0-0.6,0-1.4,0c-1.7-0.1-7-0.3-6.8-5.5c0.2-3.1,0.4-6.6,0.6-10
		c0.4-6.7,0.8-12.6,0.6-14.8l9.9,0.5c-0.4,1.4-0.7,2.8-0.8,4.3c-0.4,9.1,6.6,16.9,15.8,17.4c9.1,0.4,16.9-6.6,17.4-15.8
		c0.1-1.5-0.1-3-0.4-4.5c5.7,0.3,7.1,0.4,7.4,0.4c0.7,0.1,1.4,0.1,2.1,0.2c0.2,0,0.3,0,0.5,0c-0.1,1-0.1,1.9-0.2,2.6
		C57.4,35,56.9,51.9,56.9,52.6z"/>
	<path class="st0" d="M31.4,40.8c4.8,0.2,8.8-3.4,9-8.2c0.2-4.8-3.4-8.8-8.2-9s-8.8,3.4-9,8.2C22.9,36.5,26.6,40.5,31.4,40.8z
		 M32.1,26c3.4,0.2,6,3.1,5.8,6.4c-0.2,3.4-3.1,6-6.4,5.8c-3.4-0.2-6-3-5.8-6.4C25.8,28.5,28.7,25.9,32.1,26z"/>
	<path class="st0" d="M49.1,20.5l2.4,0.1c2.2,0.1,4.1-1.6,4.2-3.8l0.1-2.6c0.1-2.2-1.6-4.1-3.8-4.2l-2.4-0.1
		c-2.2-0.1-4.1,1.6-4.2,3.8l-0.1,2.6C45.2,18.5,46.9,20.4,49.1,20.5z M48.8,13.9c0-0.4,0.3-0.7,0.7-0.7l2.4,0.1
		c0.4,0,0.7,0.3,0.7,0.7l-0.1,2.6c0,0.4-0.3,0.7-0.7,0.7l-2.4-0.1c-0.4,0-0.7-0.3-0.7-0.7L48.8,13.9z"/>
</g>
<g>
</g>
<g>
</g>
<g>
</g>
<g>
</g>
<g>
</g>
<g>
</g>
<g>
</g>
<g>
</g>
<g>
</g>
<g>
</g>
<g>
</g>
<g>
</g>
<g>
</g>
<g>
</g>
<g>
</g>
</svg>
