<?xml version="1.0" encoding="utf-8"?>
<!-- Generator: Adobe Illustrator 19.1.0, SVG Export Plug-In . SVG Version: 6.00 Build 0)  -->
<svg version="1.1" id="Layer_1" xmlns="http://www.w3.org/2000/svg" xmlns:xlink="http://www.w3.org/1999/xlink" x="0px" y="0px"
	 viewBox="0 0 73 91.6" style="enable-background:new 0 0 73 91.6;" xml:space="preserve">
<style type="text/css">
	.st0{fill:#1C1C1C;}
</style>
<g>
	<path class="st0" d="M15.7,8.2L15.7,8.2l14.8-0.9c0.2,1.1,1.2,1.8,2.6,2.2v1.7l7-1.1V9.5c1.5-0.5,2.6-1.3,2.6-2.6V6.5l14.8-0.9h0.2
		l0,0c1-0.2,1.7-1,1.6-2s-0.8-1.8-1.8-1.8l0,0L42.7,2.7l0,0C42.7,0.2,38,0,36.6,0s-6.1,0.2-6.1,2.7v0.8L15.7,4.4h-0.3l0,0
		c-0.9,0.2-1.6,1.1-1.6,2C13.9,7.4,14.7,8.2,15.7,8.2z M33.1,6.7V3.2c0.5-0.2,1.6-0.5,3.4-0.5c1.7,0,2.9,0.3,3.4,0.5v3.5
		c-0.4,0.2-1.6,0.6-3.4,0.6S33.5,6.9,33.1,6.7z"/>
	<polygon class="st0" points="33,16.1 40,14.9 40,12.2 33,13.3 	"/>
	<polygon class="st0" points="40,34.8 33,36 33,38.7 40,37.6 	"/>
	<path class="st0" d="M57.8,39.6H15.2v41.3h42.6C57.8,80.9,57.8,39.6,57.8,39.6z M54.9,78H18.1V42.4h36.8V78z"/>
	<path class="st0" d="M67.3,84.5V30.3h2.3v-6.2l-2.3-0.3v-4.9H64v4.5l-19.6-2.6c-0.6-1.1-2.6-1.6-4.5-1.9v-1.8l-7,1.1v0.6
		C31,19,29,19.6,28.4,20.7L8.9,23.3v-4.5H5.6v4.9L3.3,24v6.2h2.3v54.3H0v3.3h30.6c0.5,1,1,1.5,1.7,2.2c1,1,2.7,1.6,4.3,1.6
		c1.5,0,2.9-0.5,4.1-1.5c0.8-0.7,1.3-1.3,1.8-2.3H73v-3.3H67.3z M42,28.4c-0.7,0.4-2.8,0.9-5.4,0.9c-2.7,0-4.8-0.6-5.4-0.9v-6.3
		c0.8-0.3,3-0.7,5.4-0.7c2.5,0,4.6,0.4,5.4,0.7V28.4z M33.5,86.2c-0.1-0.2-0.2-0.5-0.4-0.7c-0.4-0.6-1.3-0.9-2.5-0.9H9V30.3h20.1
		c0.9,0.8,2.5,1.2,3.9,1.5v2.1l7-1.1v-1c1.5-0.2,3-0.7,3.9-1.5H64v54.2H42.7h-0.3c-1.2,0-2.1,0.3-2.5,0.9c-0.2,0.3-0.3,0.6-0.4,0.8
		c-0.1,0.4-0.3,0.7-0.9,1.3c-0.5,0.5-1.3,0.8-2.1,0.8c-0.9,0-1.6-0.3-2.3-1C33.8,87,33.6,86.6,33.5,86.2z M9,27v-0.4L28.3,24v3H9z
		 M64,26.6V27H44.7v-3L64,26.6z"/>
	<circle class="st0" cx="23.4" cy="70.8" r="1.2"/>
	<circle class="st0" cx="28.7" cy="70.8" r="1.2"/>
	<circle class="st0" cx="33.9" cy="70.8" r="1.2"/>
	<circle class="st0" cx="39.1" cy="70.8" r="1.2"/>
	<circle class="st0" cx="44.4" cy="70.8" r="1.2"/>
	<circle class="st0" cx="49.6" cy="70.8" r="1.2"/>
	<circle class="st0" cx="23.4" cy="65.5" r="1.2"/>
	<circle class="st0" cx="28.7" cy="65.5" r="1.2"/>
	<circle class="st0" cx="33.9" cy="65.5" r="1.2"/>
	<circle class="st0" cx="39.1" cy="65.5" r="1.2"/>
	<circle class="st0" cx="44.4" cy="65.5" r="1.2"/>
	<circle class="st0" cx="49.6" cy="65.5" r="1.2"/>
	<circle class="st0" cx="23.4" cy="60.2" r="1.2"/>
	<circle class="st0" cx="28.7" cy="60.2" r="1.2"/>
	<circle class="st0" cx="33.9" cy="60.2" r="1.2"/>
	<circle class="st0" cx="39.1" cy="60.2" r="1.2"/>
	<circle class="st0" cx="44.4" cy="60.2" r="1.2"/>
	<circle class="st0" cx="49.6" cy="60.2" r="1.2"/>
	<circle class="st0" cx="23.4" cy="54.9" r="1.2"/>
	<circle class="st0" cx="28.7" cy="54.9" r="1.2"/>
	<circle class="st0" cx="33.9" cy="54.9" r="1.2"/>
	<circle class="st0" cx="39.1" cy="54.9" r="1.2"/>
	<circle class="st0" cx="44.4" cy="54.9" r="1.2"/>
	<circle class="st0" cx="49.6" cy="54.9" r="1.2"/>
	<circle class="st0" cx="23.4" cy="49.7" r="1.2"/>
	<circle class="st0" cx="28.7" cy="49.7" r="1.2"/>
	<circle class="st0" cx="33.9" cy="49.7" r="1.2"/>
	<circle class="st0" cx="39.1" cy="49.7" r="1.2"/>
	<circle class="st0" cx="44.4" cy="49.7" r="1.2"/>
	<circle class="st0" cx="49.6" cy="49.7" r="1.2"/>
</g>
<g>
</g>
<g>
</g>
<g>
</g>
<g>
</g>
<g>
</g>
<g>
</g>
<g>
</g>
<g>
</g>
<g>
</g>
<g>
</g>
<g>
</g>
<g>
</g>
<g>
</g>
<g>
</g>
<g>
</g>
</svg>
