<?xml version="1.0" encoding="utf-8"?>
<!-- Generator: Adobe Illustrator 19.1.0, SVG Export Plug-In . SVG Version: 6.00 Build 0)  -->
<svg version="1.1" id="Layer_1" xmlns="http://www.w3.org/2000/svg" xmlns:xlink="http://www.w3.org/1999/xlink" x="0px" y="0px"
	 viewBox="-133.9 206.1 131.5 79" style="enable-background:new -133.9 206.1 131.5 79;" xml:space="preserve">
<style type="text/css">
	.st0{fill:#FFFFFF;}
</style>
<g>
	<g>
		<path class="st0" d="M-102.3,244.6c0.2,0,0.5-0.1,0.9-0.5c0.2-0.2,0.4-0.3,0.9-1c0.2-0.4,0.5-0.9,0.7-1.3c0.3-0.7,0.5-1.2,0.7-1.8
			c0.2-0.5,0.3-0.7,0.6-0.6c0.3,0,0.4,0.2,0.4,0.3s0,0.2,0,0.4l-0.2,0.8c-0.2,0.5-0.3,1.1-0.7,1.7c-0.4,0.8-0.6,1.2-0.8,1.5
			l-0.3,0.5c-0.5,0.7-0.8,0.9-1.2,1.2c-0.4,0.2-1.1,0.3-1.3,0.3c-0.9,0-1-0.1-1.7-0.5c-0.3-0.2-0.6-0.4-1-1.1
			c-0.3-0.4-0.6-1.1-0.8-1.7c-0.4-1.3-0.7-2.3-1-4c-0.1-0.5-0.3-1-0.4-1.4c-0.1-0.3-0.1-0.6-0.2-0.9c-0.1-0.2-0.1-0.4-0.2-0.6
			c0-0.2,0-0.3-0.1-0.4c-0.2-1.2-0.5-2.4-0.7-3.5c0,0-0.1,0-0.1-0.1c0-0.1,0,0,0,0c-0.1,0.3-0.1,0.6-0.3,0.9c0,0.3-0.1,0.4-0.2,0.7
			c-0.1,0.4-0.3,0.8-0.4,1.2c-0.1,0.3-0.2,0.6-0.3,0.9c0,0-0.1,0.2-0.1,0.4c-0.2,0.7-0.5,1.5-0.9,2.2c-0.2,0.5-0.5,1-0.6,1.4
			c-0.2,0.3-0.2,0.5-0.4,0.8c-0.2,0.8-0.6,1.5-0.8,2.4c0,0.2,0,0.3-0.1,0.4c0,0.2-0.1,0.3-0.1,0.5c0,0.1-0.1,0.2-0.1,0.3l-0.1,0.1
			c-0.2,0.6-0.3,1.2-0.5,1.8c0,0.3-0.3,0.8-0.7,0.8c-0.1,0-0.2,0-0.4-0.1c-0.3-0.3-0.7-1-0.9-1.4c-0.1-0.2-0.2-0.5-0.3-0.7
			c-0.2-0.3-0.3-0.6-0.4-0.9c-0.3-0.6-0.6-1.3-1-2.2l-0.2-0.4c-0.7-1.6-1.5-3.3-2.5-4.8c-0.2-0.5-0.5-1-0.8-1.5
			c-0.4-0.7-0.8-1.5-1.2-2l0,0c0,0,0,0,0,0.1c0,0.1,0,0.2-0.1,0.3c0,0.2,0,0.3,0,0.6c-0.1,0.3-0.2,1.2-0.2,1.5s-0.1,0.6-0.1,0.8
			l-0.1,0.2c0,0.1,0,0.1,0,0.2c-0.1,0.1-0.1,0.4-0.1,0.6c0,0.3-0.1,0.6-0.2,0.9l-0.1,0.1c-0.1,0.5-0.2,1-0.3,1.4l-0.1,0.2
			c-0.1,0.4-0.2,0.7-0.3,1.1c-0.2,0.7-0.3,1.4-0.6,2.2c-0.1,0.3-0.1,0.5-0.2,0.8c-0.2,0.4-0.3,0.8-0.4,1.2c-0.3,1-0.8,1.8-1.2,2.6
			c-0.5,1-1.2,1.6-2.2,2.1c-0.5,0.2-1,0.4-1.5,0.4c-0.3,0-0.7,0-1,0c-1-0.2-1.8-0.6-2.4-1.3c-0.3-0.4-0.5-0.9-0.6-1.5
			c-0.1-0.5-0.1-1.1,0-1.7c0.1-0.7,0.5-1.8,1.3-2.2c0.5-0.4,0.9-0.6,1.3-0.7c0.4-0.1,0.8,0,1.3,0.1c0.9,0.4,1.1,1.4,1.1,2.2
			c-0.1,0.4-0.3,0.5-0.6,0.6c-0.2,0-0.5-0.2-0.5-0.4c0-0.2-0.1-0.5-0.1-0.7c-0.1-0.4-0.4-0.6-0.7-0.6l0,0c-0.2,0-0.6,0.1-0.8,0.3
			c-0.5,0.4-0.9,1.1-0.9,2c-0.1,0.9,0.4,1.8,1.2,2.4c0.4,0.2,0.9,0.3,1.4,0.3c0.3-0.1,0.7-0.1,1-0.3c0.9-0.4,1.2-0.8,1.7-1.6
			c0.7-1.3,1.2-2.6,1.6-3.9c0.2-0.9,0.5-1.8,0.7-2.7c0.1-0.7,0.3-1.4,0.5-2.2c0.3-0.9,0.5-1.8,0.6-2.8c0.1-0.5,0.2-1.3,0.4-2
			c0-0.2,0.1-0.4,0.1-0.6c0.1-0.2,0-0.4,0.1-0.6c0-0.3,0-0.5,0-0.8c0,0,0,0,0-0.1c0,0,0,0-0.1-0.1c-0.4-0.4-0.8-1-1.1-1.5
			c-0.2-0.2-0.3-0.5-0.5-0.7c-0.3-0.4-0.5-0.7-0.7-1.3c-0.2-0.6-0.2-1.4,0.1-1.9c0.2-0.5,0.7-0.9,1.4-1c0,0,0.1,0,0.2,0
			c0.5,0,0.9,0.1,1.2,0.3c0.4,0.4,0.6,0.6,0.9,1.1c0.2,0.4,0.3,1,0.3,1.5v0.2c0.1,1,0,2.1-0.2,2.9c0,0.1,0.1,0.2,0.1,0.3h0.1
			c0.1,0.1,0.1,0.2,0.2,0.3c0,0.1,0.1,0.3,0.2,0.3c0.5,0.7,1.1,1.6,1.5,2.5c0.3,0.5,0.6,1,0.8,1.5c0.7,1.1,1.4,2.3,1.9,3.5
			c0.1,0.3,0.3,0.6,0.5,0.9c0.3,0.7,0.7,1.3,0.9,2c0.3,0.6,0.5,1.3,0.9,1.9c0.1,0.1,0.1,0.1,0.1,0.2V244c0.3-1,0.5-1.7,0.8-2.6
			c0.7-1.9,1.3-3.5,2-5.1c0.2-0.5,0.3-1,0.5-1.5c0.1-0.4,0.2-0.7,0.3-1.1c0.2-0.3,0.2-0.6,0.3-0.9c0.3-0.9,0.6-1.8,1-2.7
			c0.3-0.6,0.3-1.2,0.1-2c-0.1-0.3-0.2-0.7-0.2-1.1c-0.2-0.7-0.3-1.4-0.5-2.2v-0.2c-0.1-0.6-0.2-1.2-0.1-1.9c0.1-1,0.9-1.8,1.9-1.9
			c0.9-0.1,1.3,0,1.8,0.7c0.3,0.3,0.4,0.7,0.5,1.2c0,0.9-0.2,1.7-0.5,2.8c-0.3,0.9-0.5,1.8-0.8,2.6c-0.1,0.1-0.1,0.2-0.1,0.4
			c0,0.1-0.1,0.3-0.2,0.4c-0.1,0.3,0,0.6,0.1,1c0,0.1,0,0.2,0,0.2l0.1,0.5c0.2,0.8,0.4,1.8,0.7,2.6c0.1,0.5,0.2,0.9,0.3,1.5v0.1
			c0.1,0.4,0.2,0.8,0.3,1.3c0.2,1,0.4,1.7,0.6,2.8c0.1,0.2,0.2,0.4,0.2,0.7c0.2,1,0.5,1.9,0.9,2.8c0.3,0.7,0.6,1.1,0.9,1.5
			C-103.5,244.5-103,244.7-102.3,244.6z M-123.1,229.4c0-0.3,0-0.7,0-1v-0.3c0-0.1,0-0.3,0-0.5c0-0.1,0-0.2,0-0.3v-0.1
			c0-0.2,0-0.3-0.1-0.4c-0.1-0.3-0.2-0.7-0.6-0.9c-0.1-0.1-0.2-0.1-0.4-0.1c-0.1,0-0.3,0.1-0.4,0.3c-0.2,0.2-0.2,0.7-0.1,0.9
			c0.2,0.6,0.4,1,0.7,1.4l0.1,0.1C-123.6,228.7-123.3,229-123.1,229.4z M-109.2,224.3l0.1,0.5c0.1,0.5,0.1,1.1,0.2,1.6v0.1
			c0,0.2,0.1,0.4,0.1,0.5c0.1-0.2,0.1-0.3,0.1-0.5c0.1-0.1,0.1-0.3,0.2-0.4c0.3-0.9,0.9-3,0.4-3.6c-0.1-0.2-0.3-0.3-0.5-0.3v-0.1
			v0.1c-0.3,0.1-0.6,0.4-0.7,0.7v0.2C-109.2,223.6-109.3,223.9-109.2,224.3z"/>
		<path class="st0" d="M-93.8,244.6c-0.3,0-0.6,0.1-0.9,0.1c-0.7,0-1.8-0.2-2.6-0.7c-1.2-1-1.7-2.5-1.9-3.5
			c-0.1-0.3-0.1-0.6-0.1-0.8c0-0.3,0-0.5,0-0.8c0-0.1,0-0.3,0-0.5c0-0.1,0-0.3,0-0.5c0-0.1,0-0.2,0.1-0.3c0.4-2.4,1.8-4.1,2.1-4.4
			c0.2-0.2,0.4-0.4,0.7-0.6c0.3-0.3,0.7-0.3,0.8-0.3s0.2-0.1,0.7-0.2c0.8-0.1,1.2,0,1.7,0.3c0.3,0.3,0.6,0.7,0.7,1.2
			c0.1,0.3,0.1,0.8,0,1.1c-0.3,1.2-0.7,2.2-1.8,3.5c-0.5,0.6-0.8,1-1.5,1.4l-0.2,0.2c-0.3,0.2-0.6,0.2-1,0.5
			c-0.1,0.1-0.2,0.2-0.3,0.3s-0.3,0.1-0.4,0.2l-0.1,0.1c0,0.1-0.1,0.1,0,0.2c0.2,1.2,1,2,1.6,2.2c0.2,0.1,0.3,0.2,0.4,0.2
			c0.3,0.1,0.8,0.1,1.1,0c0.2,0,0.4,0,0.6-0.1c0.5-0.1,1-0.3,1.3-0.5c0.8-0.5,1.4-1.1,1.9-1.9c0.2-0.3,0.5-0.9,0.7-1.3
			c0.3-0.6,0.5-1,0.7-1.7c0.1-0.3,0.1-0.4,0.3-0.4c0.1,0,0.1,0,0.2,0c0.3,0,0.4,0.1,0.4,0.3c0,0.1,0,0.2,0,0.3l-0.2,0.5
			c-0.3,0.9-0.5,1.3-0.9,2c-0.3,0.9-0.7,1.4-0.9,1.6l-0.2,0.2c-0.5,0.8-1.1,1.1-1.9,1.6C-92.7,244.4-93.2,244.5-93.8,244.6z
			 M-97.7,239.7c0.2-0.2,0.7-0.3,0.8-0.5c1.1-0.9,1.5-1,2.1-1.9c0.2-0.4,0.5-0.8,0.6-1.1c0.4-0.7,0.5-1.6,0.4-2.4
			c-0.1-0.3-0.4-0.7-0.7-0.6c-0.3,0-0.4,0.1-0.5,0.2c-0.1,0.1-0.1,0.1-0.1,0.1s-0.9,0.4-1.7,2c-0.2,0.2-0.2,0.3-0.3,0.5
			c-0.2,0.4-0.3,0.8-0.5,1.2c-0.2,0.7-0.1,0.9-0.1,0.9c0,0.1-0.1,0.3-0.1,0.5c0,0.1,0,0.2,0,0.3C-97.8,239.3-97.9,239.3-97.7,239.7
			l-0.1,0.1L-97.7,239.7z"/>
		<path class="st0" d="M-78.4,230c1.1,0.4,1.4,1.2,1.7,2.5c0.1,0.3,0.1,0.9,0.1,1.7c0,0.7,0,1.1-0.1,1.7v0.5l-0.1,1.5v0.5
			c0,0.7,0.3,1.6,1.3,1.4h0.2c0.4-0.1,0.6-0.3,1-0.6c0.3-0.2,0.4-0.4,0.9-1.2c0.2-0.4,0.5-1,0.7-1.4c0.3-0.7,0.4-1,0.6-1.6
			c0.2-0.5,0.3-0.6,0.6-0.6s0.4,0.2,0.4,0.3s0,0.1,0,0.3c0,0.1-0.2,0.5-0.2,0.5c-0.3,0.8-0.4,1.1-0.7,1.7c-0.4,0.8-0.6,1.3-0.8,1.6
			l-0.3,0.5c-0.5,0.8-0.8,0.9-1.2,1.2c-0.4,0.3-1,0.5-1.2,0.6c-0.2,0-0.4,0.1-0.5,0c-0.4,0-1-0.2-1.3-0.5c-0.3-0.4-0.6-0.8-0.6-1.3
			c-0.1-0.8,0-1.4,0-2.2v-0.6c0-0.4,0.1-1,0-1.4v-0.8c0-0.4-0.1-1-0.2-1.4c0-0.3-0.2-0.6-0.3-0.9c-0.1-0.3-0.3-0.4-0.4-0.5
			c-0.2-0.2-0.6-0.2-0.9-0.1c-0.5,0.1-1.1,0.4-1.8,1.4c-0.2,0.2-0.3,0.3-0.4,0.5c-0.1,0.1-0.2,0.3-0.2,0.4c0,0,0,0-0.4,0.8
			s-0.8,2-0.8,4.1c0,0.4,0,0.7,0,0.9c0,0.2,0,0.4,0,0.5c0,0.2,0,0.2,0,0.3c0,0.5,0,1,0.1,1.5c0,0.7-0.1,0.8-0.5,0.9h-0.2
			c-0.2,0-0.3,0-0.5-0.1c-0.1-0.1-0.1-0.3-0.2-0.4c0-0.2-0.1-0.8-0.1-1.1v-1.3l0.1-2.5c0-0.2,0-0.3,0-0.6c0-0.2,0-0.4-0.1-0.7
			c0-0.2,0-0.4,0-0.6c0-0.3,0-0.6,0-1c-0.1-0.4-0.2-1.4-0.2-1.8c-0.1-0.4-0.4-0.6-0.7-0.5c-0.5,0.1-0.7,0.3-1,0.7
			c-0.2,0.2-0.4,0.6-0.7,1.2c-0.2,0.4-0.5,1.5-0.7,1.9c-0.3,0.8-0.4,1.2-0.5,1.8c-0.2,0.5-0.3,0.6-0.6,0.6s-0.4-0.2-0.4-0.3
			s0-0.1,0-0.3c0-0.1,0.1-0.5,0.1-0.5c0.3-0.8,0.4-1.3,0.6-2c0.2-0.8,0.6-2,1.2-2.9c0.4-0.6,0.5-0.8,0.7-1c0.1-0.1,0.3-0.3,0.4-0.3
			c0.3-0.1,0.6-0.2,0.8-0.2c0.5-0.1,0.8,0,1.4,0.3c0.4,0.3,0.6,0.7,0.7,1.2c0,0.2,0,0.7,0.1,0.9l0,0c0.2-0.3,0.3-0.6,0.5-0.9
			c0.1-0.1,0.1-0.1,0.2-0.2c0.5-0.9,1.1-1.6,2-2.1c0.5-0.3,1-0.4,1.2-0.5C-79.1,229.9-78.8,229.8-78.4,230z"/>
		<path class="st0" d="M-61.8,238.5c-0.3-0.2-0.5-0.3-0.7-0.5c-0.4-0.3-0.8-1.1-0.9-1.4c-0.3,0.7-0.7,1.1-0.8,1.1l-0.4,0.6
			c-0.8,0.8-1.4,1.2-2.1,1.3c-0.3,0-0.6,0.1-0.9,0c-0.3,0-0.7-0.2-1-0.4c-0.1-0.1-0.1-0.1-0.2-0.2l0,0l0,0c-0.1-0.1-0.3-0.3-0.4-0.4
			c-0.4-0.6-0.8-1.4-1-2.5l-0.2-1.7c0-0.2,0-0.5,0-0.5v-0.1l0,0h-0.1c-0.1,0.1-0.1,0.4-0.1,0.4c-0.2,0.5-0.3,1.1-0.4,1.4
			c-0.1,0.4-0.2,0.5-0.6,0.4c-0.2,0-0.4-0.1-0.4-0.3c0-0.1,0-0.2,0-0.3c0.1-0.1,0.1-0.4,0.2-0.6c0.3-0.9,0.4-1.3,0.6-2.3
			c0.1-0.5,0.1-0.8,0.3-1.4c0.1-0.3,0.2-1.1,0.2-1.4c0.1-0.2,0.1-0.3,0.1-0.5l0.1-0.2v-0.1c0.1-0.4,0.3-0.6,0.6-0.7
			c0.3,0,0.6,0.2,0.8,0.5c0.1,0.2,0,0.2,0,0.4c-0.3,1.2-0.3,2.3-0.2,3.6c0,0.2,0,0.4,0,0.6v0.1c0,0.7,0.1,1.3,0.2,2l0.1,0.8
			c0.1,0.6,0.4,1.1,0.6,1.5c0.3,0.6,0.8,0.9,1.3,0.8c0.4-0.1,0.7-0.1,1-0.3c1-0.8,1.5-1.6,2.1-2.9c0.2-0.3,0.2-0.8,0.1-1.1
			c-0.1-1-0.2-2.1-0.2-3.3V230c0-0.4,0-0.8,0-1.2c0-0.6,0.2-1.2,0.4-1.9c0.1-0.4,0.5-0.7,1-0.8c0.4-0.1,0.7,0,0.9,0.2l0.1,0.1
			c0,0,0,0,0.1,0.1c0.3,0.3,0.4,0.7,0.4,1.3v0.5c0,0.3,0.1,0.6,0,0.7v0.2c0,0.2,0,0.6-0.1,0.8c-0.2,1.6-1,4.1-1.1,4.4l0,0l0,0
			l-0.1,0.2c0,0.1,0,0.2,0,0.2c0.1,0.6,0.3,1.2,0.6,1.8c0.2,0.4,0.7,0.6,1.3,0.5c0.2,0,0.9-0.2,1.3-0.6c0.2-0.2,0.4-0.4,0.9-1.1
			c0.2-0.4,0.5-0.9,0.7-1.3c0.3-0.7,0.5-1.2,0.7-1.8c0.2-0.5,0.3-0.7,0.6-0.6c0.3,0,0.4,0.2,0.4,0.3s0,0.2,0,0.4
			c-0.1,0.2-0.1,0.4-0.2,0.8c-0.2,0.5-0.4,1-0.7,1.7c-0.4,0.8-0.6,1.2-0.8,1.5l-0.3,0.5c-0.6,0.9-1,1-1.4,1.3
			c-0.4,0.2-0.7,0.2-1.1,0.3C-60.9,238.7-61.4,238.7-61.8,238.5z M-67.3,223.9c0.1,0.8-0.6,1.3-0.9,1.4c-0.4,0.1-0.8-0.2-0.9-0.7
			c-0.1-0.7,0.2-1.1,0.8-1.4C-67.8,223.2-67.4,223.6-67.3,223.9z M-66.1,224.2c-0.1-0.8,0.4-1.3,0.8-1.4s1,0.2,1,0.7
			c0.1,0.7-0.3,1.2-0.9,1.4C-65.6,225-66,224.6-66.1,224.2z M-62.7,232.5c0.3-1.1,0.8-3.7,0.6-4.6l-0.1-0.1v-0.2c0,0-0.1,0-0.2,0
			l-0.1,0.1l0,0c0,0-0.1,0.1-0.1,0.2c-0.1,0.6-0.2,1.1-0.2,1.7v2.1C-62.8,231.7-62.7,232.3-62.7,232.5z"/>
		<path class="st0" d="M-41.5,233c-0.3,0.8-1,1.7-1.3,2c-0.6,0.5-1.1,0.7-1.7,0.8c-0.7,0.1-1.1,0-1.8-0.2c-0.9-0.4-1.8-1.2-2.1-2.1
			c-0.2-0.7-0.5-1.4-0.5-2.2c-0.1-0.9,0-1.6,0.2-2.4c0.2-1,0.5-2,1-2.8c0.2-0.5,0.5-0.9,0.9-1.4c0.6-0.7,1.4-1.1,2.3-1.4
			c0.1,0,0.2-0.1,0.3-0.1c0.2,0,1.2-0.3,2.2,0.7l0.1,0.1c0.1,0.2,0.3,0.5,0.3,0.6l0,0c0,0.1,0,0.2,0,0.3c-0.1,0.3-0.3,0.6-0.6,0.6
			c-0.4,0.1-0.5,0-0.8-0.6c-0.2-0.6-0.7-0.6-1.1-0.5c-0.3,0.1-0.9,0.3-1.3,0.7c0,0,0,0-0.1,0.1c-0.2,0.3-0.4,0.4-0.7,0.7
			c-0.2,0.4-0.5,0.6-0.6,1.2l-0.2,0.4c0,0.1-0.1,0.1-0.1,0.2l-0.1,0.3c-0.2,0.7-0.3,1.5-0.4,2.2c-0.1,0.5-0.1,1.2,0.1,2
			c0.1,0.4,0.2,0.9,0.4,1.2c0.1,0.3,0.3,0.5,0.5,0.7c0.6,0.5,0.8,0.8,1.7,0.7c0.2,0,0.4-0.1,0.6-0.1c1.2-0.5,1.7-1.8,2.2-3l0.1-0.2
			v-0.1c0.4-1,0.8-4.8,0.8-4.8l0.1-1.3c0-0.2,0-0.5,0-0.8c0-0.4,0.3-0.5,0.4-0.6c0.2,0,0.4,0,0.5,0c0.3,0,0.4,0.3,0.4,0.4
			c0.1,0.4-0.1,1.3-0.1,2c-0.1,0.2-0.1,0.6-0.1,0.8c-0.1,0.8-0.2,1-0.3,2.2c-0.1,0.6-0.2,1.4,0,2.4c0.1,0.8,0.6,1.9,1.6,1.7h0.2
			c0.4-0.1,0.7-0.3,1-0.6c0.3-0.2,0.4-0.4,0.9-1.2c0.2-0.4,0.5-1,0.7-1.4c0.3-0.7,0.4-1,0.6-1.6c0.2-0.5,0.3-0.6,0.6-0.6
			s0.4,0.2,0.4,0.3s0,0.1,0,0.3c0,0.1-0.2,0.5-0.2,0.5c-0.3,0.8-0.4,1.1-0.7,1.7c-0.4,0.8-0.6,1.3-0.8,1.6l-0.3,0.5
			c-0.5,0.8-1.4,1.5-2.4,1.7c-0.2,0-0.4,0-0.6,0c-0.5-0.1-1-0.3-1.2-0.6c-0.3-0.4-0.8-0.9-0.9-1.8L-41.5,233z"/>
		<path class="st0" d="M-24.9,232c-0.3-0.2-0.5-0.3-0.7-0.5c-0.4-0.3-0.8-1.1-0.9-1.4c-0.3,0.7-0.7,1.1-0.8,1.1l-0.4,0.6
			c-0.8,0.8-1.4,1.2-2.1,1.3c-0.3,0-0.6,0.1-0.9,0c-0.3,0-0.7-0.2-1-0.4c-0.1-0.1-0.2-0.1-0.2-0.2l0,0l0,0c-0.1-0.1-0.3-0.3-0.4-0.4
			c-0.4-0.6-0.8-1.4-1-2.5l-0.2-1.7c0-0.2,0-0.5,0-0.5v-0.1l0,0h-0.1c-0.1,0.1-0.1,0.4-0.1,0.4c-0.2,0.5-0.3,1.1-0.4,1.4
			c-0.1,0.4-0.2,0.5-0.6,0.4c-0.2,0-0.4-0.1-0.4-0.3c0-0.1,0-0.2,0-0.3c0.1-0.1,0.1-0.4,0.2-0.6c0.3-0.9,0.4-1.3,0.6-2.3
			c0.1-0.5,0.1-0.8,0.3-1.4c0.1-0.3,0.2-1.1,0.2-1.4c0.1-0.2,0.1-0.3,0.1-0.5l0.1-0.2v-0.1c0.1-0.4,0.3-0.6,0.6-0.7
			c0.3,0,0.6,0.2,0.8,0.5c0.1,0.2,0,0.2,0,0.4c-0.3,1.2-0.3,2.3-0.2,3.6c0,0.2,0,0.4,0,0.6v0.1c0,0.7,0.1,1.3,0.2,2l0.1,0.8
			c0.1,0.6,0.4,1.1,0.6,1.5c0.3,0.6,0.8,0.9,1.3,0.8c0.4-0.1,0.7-0.1,1-0.3c1-0.8,1.5-1.6,2.1-2.9c0.2-0.3,0.2-0.8,0.1-1.1
			c-0.1-1-0.2-2.1-0.2-3.3v-0.9c0-0.4,0-0.8,0-1.2c0-0.6,0.2-1.2,0.4-1.9c0.1-0.4,0.5-0.7,1-0.8c0.4-0.1,0.7,0,0.9,0.2l0.1,0.1
			c0,0,0,0,0.1,0.1c0.3,0.3,0.4,0.7,0.4,1.3v0.5c0,0.3,0.1,0.6,0,0.7v0.2c0,0.2,0,0.6-0.1,0.8c-0.2,1.6-1,4.1-1.1,4.4l0,0l0,0
			l-0.1,0.2c0,0.1,0,0.2,0,0.2c0.1,0.6,0.3,1.2,0.6,1.8c0.2,0.4,0.7,0.6,1.3,0.5c0.2,0,0.9-0.2,1.3-0.6c0.2-0.2,0.4-0.4,0.9-1.1
			c0.2-0.4,0.5-0.9,0.7-1.3c0.3-0.7,0.5-1.2,0.7-1.8c0.2-0.5,0.3-0.7,0.6-0.6c0.3,0,0.4,0.2,0.4,0.3s0,0.2,0,0.4
			c-0.1,0.2-0.1,0.4-0.2,0.8c-0.2,0.5-0.4,1-0.7,1.7c-0.4,0.8-0.6,1.2-0.8,1.5l-0.3,0.5c-0.6,0.9-1,1-1.4,1.3
			c-0.4,0.2-0.7,0.2-1.1,0.3C-24,232.2-24.6,232.2-24.9,232z M-25.9,226c0.3-1.1,0.8-3.7,0.6-4.6l-0.1-0.1v-0.2c0,0-0.1,0-0.2,0
			s-0.1,0.1-0.1,0.1l0,0c0,0-0.1,0.1-0.1,0.2c-0.1,0.6-0.2,1.1-0.2,1.7v2.1C-26,225.2-25.9,225.8-25.9,226z"/>
		<path class="st0" d="M-18.8,221.4c0-0.2,0-0.7,0-1c-0.1-0.8-0.1-1.7-0.1-2.4c0-0.2,0-0.5,0-0.8c0-0.8,0-1.6,0-2.3V214
			c0-0.6,0.1-1.2,0.1-1.8l0.1-1.1c0-0.9,0.2-1.9,0.4-2.9c0.2-0.8,0.6-1.5,1.2-1.8c0.3-0.1,0.5-0.2,0.8-0.3c0.7-0.1,1.6,0.6,1.9,2
			c0.2,0.8,0.1,1,0.1,1.6v0.9c0,0.2-0.1,1.4-0.1,1.6c-0.3,1.8-0.6,3-1.1,4.4c-0.3,1-0.7,1.9-0.9,2.4l-0.3,0.6
			c-0.3,0.6-0.4,1.1-0.6,1.5c-0.2,0.3-0.2,0.4-0.2,0.7v0.5c0,0.9,0.1,2.2,0.1,3.2l0.1,1.8c0,1,0.1,1.9,0.2,2.8
			c0.4,2.2,0.3,3.2,0.9,6.5c0.5,2.6,1.1,4.7,2,4.6c0.3,0,0.9-0.8,1-1c0.7-1.4,0.5-3.4,0.2-5.2c-0.3-1.5-0.7-2.5-1.5-3.5
			c-1.2-1.7-2.3-2.4-2.4-2.7c-0.1-0.3,0.3-0.8,0.8-0.9c0.2,0,0.8,0.5,1.6,0.3c0.7-0.1,1-0.2,1.4-0.5c0.2-0.2,0.5-0.5,0.7-0.8
			s0.4-0.6,0.6-1c0.1-0.1,0.2-0.3,0.2-0.4c0.2-0.5,0.3-0.9,0.5-1.4s0.3-0.6,0.6-0.6s0.4,0.2,0.4,0.3c0,0.1,0,0.1,0,0.3
			c-0.2,0.6-0.5,1.2-0.7,1.7c-0.3,0.6-0.5,1.2-0.8,1.6c-0.3,0.3-0.5,0.8-0.9,1c-0.4,0.3-0.7,0.5-1.2,0.7c-0.3,0.1-0.5,0.2-1,0.2
			c0.9,0.9,2.2,3,2.8,6c0.1,0.8,0.2,1.7,0.2,2.1c0.1,2.7-1.3,4.6-2.7,4.9c-0.1,0-0.2,0-0.3,0c-1.9-0.3-2.5-2.2-3-5
			c-0.3-1.5-0.4-3.1-0.4-3.3l0,0c-0.1-0.2-0.1-0.4-0.1-0.6s-0.1-0.4-0.1-0.6v-0.4c0-0.3-0.1-0.6-0.1-0.9v-0.1
			c-0.3-2.7-0.4-5-0.5-6.7l-0.4,1.1c-0.2,0.5-0.3,0.6-0.6,0.6s-0.4-0.2-0.4-0.3s0-0.1,0-0.3c0-0.1,0.2-0.5,0.2-0.5
			c0.3-0.8,0.6-1.3,0.8-2.3l0.3-0.9v-0.5L-18.8,221.4z M-17.5,219.2l0.1-0.2c0.2-0.4,0.4-1.3,0.7-1.9c0,0,0.2-0.7,0.3-1
			c0.2-0.7,0.2-0.8,0.3-1.2c0.2-0.9,1-4.2,0.7-6.1c-0.1-0.6-0.2-0.8-0.3-1s-0.3-0.3-0.5-0.3c-0.3,0.1-0.5,0.4-0.6,0.6
			c-0.2,0.6-0.2,0.8-0.3,1c-0.2,1.1-0.3,2.3-0.4,3.8c0,1.2-0.1,2.6-0.1,4v1.6C-17.6,218.7-17.6,219-17.5,219.2z"/>
		<path class="st0" d="M-126.7,281.2c0.1,0.6,0.4,1.1,0.8,1.4c0.4,0.3,1,0.5,1.7,0.6c0.2,0,0.3,0.1,1.1-0.1c0.3-0.1,0.8-0.2,1.2-0.4
			l0.1-0.1c0.5-0.2,0.9-0.4,1.3-0.7c0.1-0.1,0.4-0.3,0.4-0.3c0.1-0.1,0.4-0.3,0.5-0.4c0.9-0.9,1.5-2,1.9-3.3
			c0.6-1.3,0.7-2.8,0.8-3.7c0.1-0.6,0.1-0.8,0.1-1.1c0.1-0.3,0.1-0.6,0.1-1c0.1-0.6,0.1-1.3,0.1-2.1s0-1.6,0.1-2.4
			c0-0.2,0-0.4,0-0.6c0-0.2,0-0.4,0-0.6v-0.3c0-0.5,0.1-1.1,0.1-1.7c0-0.9,0-1.8,0-2.7v-0.5c0-0.2,0-0.5,0-0.7v-0.2c0-0.4,0-0.7,0-1
			c-0.1-0.4,0-0.5-0.1-0.9v-0.1c-0.2,0.1-0.2,0.2-0.3,0.3s-0.1,0.1-0.2,0.2c-0.6,0.6-0.8,0.9-1.7,1.5c-0.2,0.1-0.4,0.2-0.6,0.4
			c-0.4,0.2-0.7,0.5-1.1,0.6c-0.5,0.2-0.8,0.4-1.2,0.5c-0.2,0.1-1,0.4-1.4,0.5c-0.3,0.1-0.6,0.2-0.8,0.3c-0.4,0.1-0.8,0.2-1.1,0.4
			c-1.1,0.4-1.7,1-2.2,1.7c-0.4,0.7-0.6,1.3-0.3,2.1v0.1v0.1c0.2,0.6,0.7,1,1.5,1.3c0.4,0.1,0.9,0.1,1.3-0.1
			c0.2-0.1,0.4-0.1,0.7-0.3c0.4-0.3,0.8-0.9,0.7-1.7c0-0.2-0.2-0.2-0.4-0.2c-0.2,0-0.7,0.1-0.9-0.4c-0.1-0.2,0.1-0.6,0.3-0.7
			c0.2-0.1,0.4-0.1,0.6-0.1c1.1,0,1.5,0.9,1.6,1.7c0,0.9-0.3,1.4-0.8,2c-0.1,0.1-0.2,0.1-0.2,0.2c-0.3,0.2-0.6,0.4-1.1,0.6
			c-0.3,0.1-0.6,0.2-0.9,0.2c0,0-0.1,0-0.2,0c-0.7,0.1-1.2-0.1-1.8-0.4c-0.2-0.2-0.4-0.2-0.7-0.5c-0.4-0.3-0.7-0.9-0.7-1.1
			c-0.2-0.4-0.3-0.8-0.3-1.3c-0.1-0.9,0.1-1.6,0.6-2.4c0.1-0.2,0.3-0.4,0.6-0.6l0,0c0.4-0.4,1-0.8,1.8-1.2c0.3-0.1,0.7-0.2,0.9-0.4
			c0.1-0.1,0.4-0.2,0.6-0.3c0.3-0.1,0.6-0.1,0.9-0.3c0.6-0.2,1.1-0.4,1.7-0.7l0.3-0.1c0.3-0.1,0.8-0.3,1.1-0.6
			c0.2-0.1,0.4-0.3,0.6-0.4c0.9-0.6,1.2-1.1,1.8-1.7c0.5-0.7,0.8-0.9,0.9-1.1c0-0.1,0.1-0.1,0.1-0.1c0.2-0.3,0.5-0.7,0.9-0.7
			c0.2,0,0.6,0.1,0.7,0.6c0,0.2,0,0.3,0,0.5c-0.1,0.1,0,0.3-0.1,0.4v0.2v0.5c0,0.5,0,1,0,1.5v0.3c0,0.3,0,0.7,0,1v0.7
			c0,0.5,0,0.9,0,1.4c0,0.7,0,1.4,0,2.1v0.2c0,0.5,0,0.9,0,1.4c0,1.3,0,2.5-0.1,3.9c-0.1,1.6-0.2,3.4-0.5,5.2l-0.1,0.2
			c-0.1,0.6-0.2,1.2-0.4,1.7c-0.2,1-0.7,2.3-1.5,3.3l-0.1,0.1c-0.3,0.4-0.6,0.8-1,1.1c-0.4,0.4-0.6,0.6-1.1,0.9
			c-0.6,0.4-1.2,0.8-2.5,1c-0.1,0-0.2,0-0.3,0c-0.3,0-0.6,0.1-0.9,0.1h-0.1c-0.8,0-1.3-0.1-2.2-0.3c-1-0.3-1.7-1.3-2-2.1
			c-0.2-0.5-0.3-0.9-0.2-1.4c0-1.3,0.5-2.3,1.5-3c0.4-0.2,0.7-0.3,1.1-0.4c0.9-0.2,1.8,0.2,2.5,1c0,0,0,0,0.1,0.1
			c0.2,0.3,0.2,0.7-0.1,0.9c-0.1,0.1-0.2,0.2-0.3,0.2c-0.3,0-0.5-0.2-0.7-0.3l-0.1-0.1c-0.2-0.2-0.6-0.4-0.9-0.3
			c-0.6,0-1.1,0.2-1.4,0.7c-0.1,0.2-0.2,0.4-0.2,0.6C-126.7,280.4-126.8,280.8-126.7,281.2z"/>
		<path class="st0" d="M-103.2,268.9c1.1,0.4,1.4,1.2,1.7,2.5c0.1,0.3,0.1,0.9,0.1,1.7c0,0.7-0.1,1.1-0.1,1.7v0.5l-0.1,1.5v0.5
			c0,0.7,0.3,1.6,1.3,1.4h0.2c0.4-0.1,0.6-0.3,1-0.6c0.3-0.2,0.4-0.4,0.9-1.2c0.2-0.4,0.5-1,0.7-1.4c0.3-0.7,0.4-1,0.6-1.6
			c0.2-0.5,0.3-0.6,0.6-0.6c0.3,0,0.4,0.2,0.4,0.3s0,0.1,0,0.3c0,0.1-0.2,0.5-0.2,0.5c-0.3,0.8-0.4,1.1-0.7,1.7
			c-0.4,0.8-0.6,1.3-0.8,1.6l-0.3,0.5c-0.5,0.8-0.8,0.9-1.2,1.2c-0.4,0.3-1,0.5-1.2,0.6c-0.2,0-0.4,0.1-0.5,0c-0.4,0-1-0.2-1.3-0.5
			c-0.3-0.4-0.6-0.8-0.6-1.3c-0.1-0.8,0-1.4,0-2.2v-0.6c0-0.4,0.1-1,0-1.4v-0.8c0-0.4-0.1-1-0.2-1.4c0-0.3-0.2-0.6-0.3-0.9
			c-0.1-0.3-0.3-0.4-0.4-0.5c-0.2-0.2-0.6-0.2-0.9-0.1c-0.5,0.1-1.1,0.4-1.8,1.4c-0.2,0.2-0.3,0.3-0.4,0.5c-0.1,0.1-0.2,0.3-0.2,0.4
			c0,0,0,0-0.4,0.8c-0.4,0.8-0.8,2-0.8,4.1c0,0.4,0,0.7,0,0.9c0,0.2,0,0.4,0,0.5c0,0.2,0,0.2,0,0.3c0,0.5,0,1,0.1,1.5
			c0,0.7-0.1,0.8-0.5,0.9h-0.2c-0.2,0-0.3,0-0.5-0.1c-0.1-0.1-0.1-0.3-0.2-0.4c0-0.2-0.1-0.8-0.1-1.1v-1.3l0.1-2.5
			c0-0.2,0-0.3,0-0.6c0-0.2,0-0.4-0.1-0.7c0-0.2,0-0.4,0-0.6c0-0.3,0-0.6,0-1c-0.1-0.4-0.2-1.4-0.2-1.8c-0.1-0.4-0.4-0.6-0.7-0.5
			c-0.5,0.1-0.7,0.3-1,0.7c-0.2,0.2-0.4,0.6-0.7,1.2c-0.2,0.4-0.5,1.5-0.7,1.9c-0.3,0.8-0.4,1.2-0.5,1.8c-0.2,0.5-0.3,0.6-0.6,0.6
			c-0.3,0-0.4-0.2-0.4-0.3s0-0.1,0-0.3c0-0.1,0.1-0.5,0.1-0.5c0.3-0.8,0.4-1.3,0.6-2c0.2-0.8,0.6-2,1.2-2.9c0.4-0.6,0.5-0.8,0.7-1
			c0.1-0.1,0.3-0.3,0.4-0.3c0.3-0.1,0.6-0.2,0.8-0.2c0.5-0.1,0.8,0,1.4,0.3c0.4,0.3,0.6,0.7,0.7,1.2c0,0.2,0,0.7,0.1,0.9l0,0
			c0.2-0.3,0.3-0.6,0.5-0.9c0.1-0.1,0.1-0.1,0.2-0.2c0.5-0.9,1.1-1.6,2-2.1c0.5-0.3,1-0.4,1.2-0.5
			C-103.9,268.8-103.6,268.7-103.2,268.9z"/>
		<path class="st0" d="M-96.4,275c-0.2,0-0.4,0-0.5-0.4c0,0,0-0.1,0-0.2l0.5-1.5l0.3-0.7l0.3-0.7l0.2-0.5l0.2-0.4l0.2-0.4
			c-0.6-0.8-1-1.6-1.2-2.6c-0.1-0.4-0.1-0.9,0-1.2l0.1-0.3l0.2-0.3c0.1-0.2,0.2-0.3,0.4-0.4c0.3-0.2,0.6-0.4,0.9-0.4
			c0.1,0,0.2,0,0.4,0h0.3c0.2,0,0.4,0.1,0.6,0.3c0.1,0.1,0.3,0.2,0.4,0.4c0.1,0.2,0.2,0.4,0.2,0.6c0,0.1,0,0.2,0,0.4v0.5
			c0,0.2-0.1,0.4-0.1,0.6c0,0.1,0,0.3-0.1,0.4l-0.3,0.7l-0.1,0.4c-0.1,0.2-0.2,0.5-0.3,0.7l0.3,0.4l0.3,0.4c0.1,0.1,0.1,0.2,0.2,0.3
			l0.4,0.4c0.1,0.1,0.2,0.3,0.4,0.4l0.2,0.2l0.3,0.4l0.3,0.3l0.3,0.5l0.2,0.3c0.3,0.4,0.5,0.9,0.6,1.4l0.1,0.4c0,0.2,0.1,0.5,0,0.7
			c0,0.2,0,0.5-0.1,0.7l-0.2,0.4c0.4-0.2,0.7-0.5,1-0.7c0.2-0.2,0.4-0.4,0.6-0.6c0.4-0.6,0.8-1.2,1-1.6l0.2-0.5
			c0.2-0.5,0.4-0.9,0.5-1.3c0,0,0,0,0-0.1c0.1-0.4,0.2-0.5,0.4-0.5c0.1,0,0.2,0,0.2,0c0.3,0,0.4,0.2,0.4,0.3s0,0.2,0,0.4l-0.2,0.8
			l-0.3,0.7l-0.5,1c-0.3,0.6-0.6,1.1-0.9,1.5c-0.2,0.2-0.4,0.4-0.6,0.6c-0.2,0.2-0.5,0.5-0.7,0.6c-0.3,0.2-0.6,0.3-0.9,0.5l-0.8,0.4
			l-0.7,0.2c-0.3,0.1-0.7,0.2-1.1,0.3h-0.2c-0.4,0.1-0.8,0.1-1.2,0l-0.5-0.2c-0.1,0-0.2-0.1-0.3-0.1c-0.2-0.1-0.4-0.3-0.5-0.4
			c0,0-0.1-0.1-0.1-0.2c0-0.1,0-0.2,0-0.3l0.1-0.1c0.1-0.1,0.2-0.2,0.3-0.2l0,0c0.1,0.1,0.3,0.2,0.4,0.3s0.3,0.1,0.4,0.1
			c0.3,0.1,0.7,0,1.1,0c0.2,0,0.5-0.1,0.7-0.2c0.2-0.1,0.5-0.3,0.7-0.5c0.1-0.2,0.2-0.4,0.3-0.6c0.1-0.1,0.1-0.3,0.1-0.4
			c0-0.2,0-0.5,0-0.7c0-0.2-0.1-0.4-0.1-0.6c-0.1-0.2-0.3-0.5-0.4-0.8c-0.1-0.2-0.2-0.5-0.3-0.7c-0.1-0.2-0.3-0.3-0.5-0.5l-0.2-0.3
			l-0.3-0.3l-0.4-0.4l-0.3-0.3l-0.2-0.2l-0.2-0.3l-0.1,0.2l-0.3,0.7l-0.3,0.7c-0.1,0.2-0.1,0.4-0.2,0.6l-0.2,0.7
			c-0.1,0.3-0.2,0.5-0.4,0.8C-96.2,274.9-96.3,274.9-96.4,275z M-95.1,268.4c0.1,0.2,0.2,0.4,0.3,0.6c0.1-0.2,0.2-0.4,0.2-0.5
			c0.1-0.1,0.1-0.2,0.1-0.3l0.1-0.4c0.1-0.3,0.1-0.6,0.1-1c-0.1-0.3-0.2-0.5-0.4-0.6c0,0-0.1,0-0.2,0s-0.2,0.1-0.3,0.2
			c-0.2,0.2-0.2,0.6-0.2,1C-95.3,267.8-95.3,268.1-95.1,268.4z"/>
		<path class="st0" d="M-86.7,267.1c-0.2,0-0.3,0-0.5,0c-0.3,0.1-0.5,0.1-0.8,0.2c-0.2,0-0.3,0-0.5-0.1c-0.1-0.1-0.2-0.2-0.2-0.3
			c0-0.3,0.1-0.4,0.3-0.5c0.1-0.1,0.3,0,0.4-0.1c0.1,0,0.2-0.1,0.3-0.1l0.7-0.1c0.3,0,0.6,0,0.9-0.1c0-0.9,0.1-1.8,0.1-2.7v-0.1
			c0-0.5,0.1-1,0.1-1.5c0-0.2,0.1-0.4,0.1-0.6c0-0.3,0.1-0.6,0.1-0.8c0.1-0.4,0.2-0.9,0.4-1.4c0.1-0.2,0.3-0.5,0.4-0.7
			c0.2-0.2,0.5-0.4,0.8-0.4c0.4-0.1,0.7,0,0.8,0.2c0.1,0,0.2,0.1,0.2,0.2c0.1,0.1,0.3,0.4,0.3,0.7c0.1,0.6,0.1,1.2,0.1,1.9
			c0,0.2,0,0.4-0.1,0.6c-0.1,0.6-0.3,1.3-0.5,2c-0.3,1.1-0.4,1.4-0.5,1.6l-0.2,0.4h0.2c0.3,0,0.8-0.1,1.2-0.2
			c0.6-0.1,0.9-0.1,1.1-0.1s0.4-0.1,0.5,0c0.1,0,0.2,0,0.3,0.1c0.2,0.3,0.1,0.4,0.1,0.7c0,0.1-0.2,0.3-0.4,0.3h-0.1
			c-0.8,0-1.7,0.1-2.6,0.3c-0.2,0.1-0.7,0.1-0.9,0.1c-0.1,0-0.1,0.3-0.2,0.5l-0.1,0.2c-0.1,0.3-0.1,0.4-0.1,0.6c0,0.1,0,0.4,0,0.8
			c0,0.2,0,0.4,0,0.7c0,0.2,0,0.5,0,0.7c0,0.5,0,1,0,1.5c0,0.7,0,1.2,0.1,1.8c0,0.2,0.1,0.6,0.3,1c0.1,0.1,0.1,0.2,0.1,0.3
			c0.1,0.2,0.2,0.5,0.5,0.7c0.3,0.3,0.8,0.3,1.2,0.2c0.2,0,0.8-0.2,1.3-0.6c0.2-0.2,0.3-0.1,0.8-0.8c0.2-0.4,0.5-0.9,0.7-1.3
			c0.3-0.7,0.5-1.2,0.7-1.8c0.2-0.5,0.3-0.7,0.6-0.6c0.3,0,0.4,0.2,0.4,0.3s0,0.2,0,0.4l-0.2,0.8c-0.2,0.5-0.4,1-0.7,1.7
			c-0.4,0.8-0.6,1.2-0.8,1.5c-0.1,0.2-0.2,0.4-0.5,0.6c-0.5,0.6-0.8,0.6-1.3,0.9c-0.4,0.2-0.8,0.3-1,0.3c-0.9,0-1.6-0.1-2.2-0.9
			c-0.3-0.3-0.5-0.8-0.7-1.1c-0.3-0.8-0.3-1.3-0.3-1.7c-0.2-0.4-0.1-1.9,0-2.1c0-0.1-0.1-0.2-0.1-0.1c-0.1,0.1-0.1,0.4-0.1,0.4
			c-0.2,0.5-0.3,1.1-0.4,1.4c-0.1,0.4-0.2,0.5-0.6,0.4c-0.2,0-0.4-0.1-0.4-0.3c0-0.1,0-0.2,0-0.3c0.1-0.1,0.1-0.4,0.2-0.6l0.2-0.5
			l0.2-0.7l0.3-1c0-0.4,0.1-0.7,0.2-1.1c0-0.2,0.1-0.5,0.2-0.8c0-0.3,0.1-0.5,0.1-0.9V267C-86.3,267-86.6,267.1-86.7,267.1z
			 M-85,264v0.4l-0.1,1.3c0.2-0.3,0.3-0.7,0.5-1.2c0.1-0.3,0.2-0.6,0.3-0.9c0.2-0.6,0.3-1.3,0.4-2c0-0.2,0.1-0.3,0.1-0.5
			c0.1-0.4,0.1-0.8,0.1-1.1c0-0.3,0-0.9-0.2-1c-0.1-0.1-0.1-0.1-0.2,0c-0.2,0.1-0.2,0.2-0.3,0.3l0,0c-0.1,0.3-0.2,0.6-0.2,0.9v0.2
			l-0.1,1.5v0.5v0.3L-85,264z"/>
		<path class="st0" d="M-72,272.9c-0.3,0.8-1,1.7-1.3,2c-0.6,0.5-1.1,0.7-1.7,0.8c-0.7,0.1-1.1,0-1.8-0.2c-0.9-0.4-1.8-1.2-2.1-2.1
			c-0.2-0.7-0.5-1.4-0.5-2.2c-0.1-0.9,0-1.6,0.2-2.4c0.2-1,0.5-2,1-2.8c0.2-0.5,0.5-0.9,0.9-1.4c0.6-0.7,1.4-1.1,2.3-1.4
			c0.1,0,0.2-0.1,0.3-0.1c0.2,0,1.2-0.3,2.2,0.7l0.1,0.1c0.1,0.2,0.3,0.5,0.3,0.6l0,0c0,0.1,0,0.2,0,0.3c-0.1,0.3-0.3,0.6-0.6,0.6
			c-0.4,0.1-0.5,0-0.8-0.6c-0.2-0.6-0.7-0.6-1.1-0.5c-0.3,0.1-0.9,0.3-1.3,0.7c0,0,0,0-0.1,0.1c-0.2,0.3-0.4,0.4-0.7,0.7
			c-0.2,0.4-0.5,0.6-0.6,1.2l-0.2,0.4c0,0.1-0.1,0.1-0.1,0.2l-0.1,0.3c-0.2,0.7-0.3,1.5-0.4,2.2c-0.1,0.5-0.1,1.2,0.1,2
			c0.1,0.4,0.2,0.9,0.4,1.2c0.1,0.3,0.3,0.5,0.5,0.7c0.6,0.5,0.8,0.8,1.7,0.7c0.2,0,0.4-0.1,0.6-0.1c1.2-0.5,1.7-1.8,2.2-3l0.1-0.2
			v-0.1c0.4-1,0.8-4.8,0.8-4.8l0.1-1.3c0-0.2,0-0.5,0-0.8c0-0.4,0.3-0.5,0.4-0.6c0.2,0,0.4,0,0.5,0c0.3,0,0.4,0.3,0.4,0.4
			c0.1,0.4-0.1,1.3-0.1,2c-0.1,0.2-0.1,0.6-0.1,0.8c-0.1,0.8-0.2,1-0.3,2.2c-0.1,0.6-0.2,1.4,0,2.4c0.2,0.8,0.6,1.9,1.6,1.7h0.2
			c0.4-0.1,0.7-0.3,1-0.6c0.3-0.2,0.4-0.4,0.9-1.2c0.2-0.4,0.5-1,0.7-1.4c0.3-0.7,0.4-1,0.6-1.6c0.2-0.5,0.3-0.6,0.6-0.6
			s0.4,0.2,0.4,0.3s0,0.1,0,0.3c0,0.1-0.2,0.5-0.2,0.5c-0.3,0.8-0.4,1.1-0.7,1.7c-0.4,0.8-0.6,1.3-0.8,1.6l-0.3,0.5
			c-0.5,0.8-1.4,1.5-2.4,1.7c-0.2,0-0.4,0-0.6,0c-0.5-0.1-1-0.3-1.2-0.6c-0.3-0.4-0.8-1-0.9-1.8L-72,272.9z"/>
		<path class="st0" d="M-63.5,271.4c0.3,0.2,0.6,0.4,1,0.4c0.3,0.1,0.7,0,1.1-0.1s0.8-0.4,1.1-0.6c0.2-0.2,0.4-0.3,0.6-0.6
			c0.3-0.4,0.5-0.9,0.7-1.4l0.1-0.2v-0.1c0.1-0.3,0.1-0.8,0.2-1.3c0.1-0.4,0.1-0.8,0.1-1.2s0-0.8,0.1-1.1c0.1-1.3,0.1-2.4,0.1-2.4
			v-0.9v-0.5c0-0.2,0-0.5,0-0.8c0-0.3,0.2-0.5,0.5-0.6c0.1,0,0.3-0.1,0.5,0c0.4,0.1,0.6,0.3,0.5,0.7l-0.1,0.6l-0.1,1.1
			c0,0.5,0,1,0,1.5c0,0.4-0.1,1.6,0,1.9c0,0.6,0,1.1,0,1.5c0,0.6,0,1.2,0,1.6c0,1,0.1,1.4,0.1,1.6v0.1v0.7v1
			c0.3-0.3,1.2-1.3,1.4-1.5l0.7-1c0.2-0.2,0.4-0.7,0.6-0.9l0.5-0.9c0.1-0.3,0.2-0.5,0.3-0.7c0.2-0.4,0.3-0.6,0.4-1
			c0.2-0.5,0.3-0.7,0.6-0.6c0.3,0,0.4,0.2,0.4,0.3s0,0.2,0,0.4l-0.2,0.8c-0.2,0.5-0.4,0.9-0.8,1.6c-0.4,0.8-0.5,1-0.7,1.2l-0.4,0.6
			l-0.4,0.5c-0.4,0.6-0.7,1-1.4,1.7l-0.6,0.6c-0.1,0.1-0.2,0.3-0.3,0.4c-0.1,0.2,0,0.4,0,0.8v0.2v0.9c0,1,0,0.7,0,1.7v0.7
			c0,0.4,0,0.8-0.1,1.1c0,0.1,0,0.3,0,0.4v0.4v0.5c0,0,0,0.1-0.1,0.3c-0.2,1.5-1,3.9-2.9,4.2c-0.2,0-0.4,0.1-0.7,0.1s-0.5,0-0.7-0.1
			s-0.3-0.1-0.5-0.2c-0.5-0.3-1.3-1-1.5-2.4c-0.2-2.5,0.4-3.2,1.1-4.4c0.3-0.5,1-1.4,1.4-1.8l0.5-0.6c0.4-0.4,0.6-0.7,1.3-1.4
			l0.3-0.3c0.4-0.4,0.4-0.6,0.4-1.1c-0.1-0.5,0.1-1.6,0-2.7l-0.1-0.1c-0.2,0.5-0.5,1.3-0.9,1.7c-0.5,0.6-1.3,1.2-2,1.4
			c-0.5,0.1-1,0.1-1.5,0c-0.7-0.1-1.2-0.4-1.5-0.7c-0.7-0.7-1.2-1.3-1.4-2c-0.2-0.8-0.3-1.5-0.3-2.2c0-0.9,0-1.2,0.2-1.9
			c0.3-1,0.7-1.9,1.2-2.7c0.3-0.4,0.6-0.9,1.1-1.3c0.3-0.2,0.6-0.4,0.9-0.6c0.5-0.2,0.8-0.4,1.2-0.5c0.4-0.1,0.5-0.1,0.8-0.1
			s0.8,0,1.3,0.4c0.6,0.4,0.4,1.2-0.2,1.3c-0.2,0-0.3,0-0.5-0.2c-0.3-0.2-0.5-0.3-0.8-0.3c-0.2,0-0.8,0.2-1.3,0.6c0,0,0,0-0.1,0.1
			l-0.7,0.7c-0.3,0.4-0.6,0.6-0.7,1.1l-0.2,0.4c0,0.1-0.1,0.1-0.1,0.2l-0.1,0.2c-0.2,0.7-0.3,1-0.4,1.8c-0.1,0.5-0.2,1.2-0.1,2
			c0,0.4,0.1,0.9,0.3,1.2c0.1,0.3,0.2,0.5,0.4,0.7L-63.5,271.4z M-58.1,275.1c-0.2,0.2-0.3,0.3-0.5,0.5c-0.2,0.2-0.4,0.4-0.6,0.6
			c-0.2,0.3-0.5,0.5-0.7,0.8c-0.2,0.2-0.3,0.4-0.5,0.6c-0.1,0.2-0.2,0.4-0.4,0.6c-0.2,0.2-0.3,0.4-0.4,0.6c-0.3,0.5-0.5,0.8-0.6,1.3
			c-0.1,0.4-0.2,0.7-0.2,1c-0.1,0.4,0,0.8,0,1c0,0,0.1,0.8,0.5,1.3c0.2,0.3,0.4,0.5,0.7,0.6c0.2,0.1,0.4,0.1,0.7,0
			c0.5-0.1,0.9-0.4,1.2-0.8c0.2-0.2,0.3-0.3,0.4-0.6c0.1-0.3,0.3-0.7,0.4-1.1s0.1-0.7,0.2-1.2s0-1,0.1-1.5c0-0.2,0-0.4,0.1-0.6
			c0-0.6,0-1,0-1.4v-0.7c0-0.2,0-0.5,0-0.8L-58.1,275.1C-58.1,275.2-58.1,275.1-58.1,275.1z"/>
		<path class="st0" d="M-51.4,264.7l-0.6,1.9c-0.1,0.4-0.2,0.5-0.4,0.6c-0.1,0-0.1,0-0.2,0c-0.3,0-0.4-0.2-0.4-0.3s0-0.1,0-0.3
			c0-0.1,0.2-0.5,0.2-0.5c0-0.1,0.1-0.1,0.1-0.2c0.3-0.8,0.5-1.5,0.7-2.1l0.3-1.4l0,0l-0.5-0.2c-0.7-0.5-1.2-1-1.6-1.9
			c-0.1-0.2-0.2-0.5-0.3-0.8c-0.1-0.5,0-1,0.1-1.4c0.2-0.6,0.8-0.9,1.3-1c1.2-0.2,2.2,0.4,2.6,1.7v0.2c0.1,0.6,0.1,1.2-0.1,1.8
			c-0.1,0.3-0.1,0.5-0.1,0.6c0,0.1,0.4,0.1,0.6,0.1c0.5-0.1,0.8-0.1,1.4-0.5c0.3-0.2,0.5-0.6,0.9-1.2l0.1-0.1c0-0.1,0.1-0.2,0.3-0.2
			c0.1,0,0.2,0,0.3,0c0.5,0.1,0.6,0.3,0.6,0.4c0,0.1,0,0.5-0.1,0.6c-0.1,0.1-0.1,0.3-0.1,0.5c-0.1,0.3-0.2,0.7-0.3,1.2l-0.2,0.7
			c-0.2,0.9-0.1,0.9-0.2,1.7c0,0.8,0,1.6,0.1,2.4c0.2,1.3,0.6,2.4,1.8,2.2c0.3-0.1,0.5-0.2,0.9-0.5c0.3-0.2,0.4-0.5,0.9-1.2
			c0.2-0.4,0.4-0.9,0.6-1.3c0.3-0.7,0.5-1.2,0.7-1.8c0.1-0.4,0.2-0.5,0.4-0.6c0.1,0,0.1,0,0.2,0c0.3,0,0.4,0.2,0.4,0.3s0,0.1,0,0.3
			c0,0.1-0.2,0.5-0.2,0.5c0,0.1-0.1,0.2-0.1,0.2c-0.2,0.7-0.4,1.2-0.8,1.8c-0.4,0.8-0.6,1.3-0.8,1.6l-0.2,0.4
			c-0.5,0.7-0.6,0.9-1,1.1c-0.4,0.3-0.9,0.4-1.1,0.4s-0.3,0.1-0.4,0h-0.1c-0.2,0-0.5,0-0.7-0.2c-0.5-0.2-0.9-0.6-1.2-1.1
			s-0.6-1.2-0.7-1.9l-0.1-0.4l-0.1-0.9c-0.1-0.8-0.1-1.6,0-2.2l0.1-0.7c0.1-0.3,0.1-0.7,0.2-1c-0.2,0-0.3,0.1-0.4,0.2l-0.1,0.1
			c-0.2,0.1-0.3,0.1-0.5,0.2c-0.2,0-0.4,0-0.5,0.1c-0.3,0-0.6,0.1-0.9,0l-0.4-0.1C-51,263.5-51.4,264.5-51.4,264.7z M-52.3,258.2
			c-0.1,0-0.1,0-0.2,0c-0.4,0.1-0.6,0.7-0.6,1.1v0.1c0.1,0.5,0.5,1.3,0.8,1.6c0.1,0.1,0.4,0.3,0.8,0.4c0.1-0.4,0.2-1,0.2-1
			c0-0.3,0-0.7-0.1-0.8C-51.4,258.9-51.7,258.2-52.3,258.2z"/>
		<path class="st0" d="M-34.7,266.4c-0.3,0.8-1,1.7-1.3,2c-0.6,0.5-1.1,0.7-1.7,0.8c-0.7,0.1-1.1,0-1.8-0.2
			c-0.9-0.4-1.8-1.2-2.1-2.1c-0.2-0.7-0.5-1.4-0.5-2.2c-0.1-0.9,0-1.6,0.2-2.4c0.2-1,0.5-2,1-2.8c0.2-0.5,0.5-0.9,0.9-1.4
			c0.6-0.7,1.4-1.1,2.3-1.4c0.1,0,0.2-0.1,0.3-0.1c0.2,0,1.2-0.3,2.2,0.7l0.1,0.1c0.1,0.2,0.3,0.5,0.3,0.6l0,0c0,0.1,0,0.2,0,0.3
			c-0.1,0.3-0.3,0.6-0.6,0.6c-0.4,0.1-0.5,0-0.8-0.6c-0.2-0.6-0.7-0.6-1.1-0.5c-0.3,0.1-0.9,0.3-1.3,0.7c0,0,0,0-0.1,0.1
			c-0.2,0.3-0.4,0.4-0.7,0.7c-0.2,0.4-0.5,0.6-0.6,1.2l-0.2,0.4c0,0.1-0.1,0.1-0.1,0.2l-0.1,0.3c-0.2,0.7-0.3,1.5-0.4,2.2
			c-0.1,0.5-0.1,1.2,0.1,2c0.1,0.4,0.2,0.9,0.4,1.2c0.1,0.3,0.3,0.5,0.5,0.7c0.6,0.5,0.8,0.8,1.7,0.7c0.2,0,0.4-0.1,0.6-0.1
			c1.2-0.5,1.7-1.8,2.2-3l0.1-0.2v-0.1c0.4-1,0.8-4.8,0.8-4.8l0.1-1.3c0-0.2,0-0.5,0-0.8c0-0.4,0.3-0.5,0.4-0.6c0.2,0,0.4,0,0.5,0
			c0.3,0,0.4,0.3,0.4,0.4c0.1,0.4-0.1,1.3-0.1,2c-0.1,0.2-0.1,0.6-0.1,0.8c-0.1,0.8-0.2,1-0.3,2.2c-0.1,0.6-0.2,1.4,0,2.4
			c0.1,0.8,0.6,1.9,1.6,1.7h0.2c0.4-0.1,0.7-0.3,1-0.6c0.3-0.2,0.4-0.4,0.9-1.2c0.2-0.4,0.5-1,0.7-1.4c0.3-0.7,0.4-1,0.6-1.6
			c0.2-0.5,0.3-0.6,0.6-0.6s0.4,0.2,0.4,0.3s0,0.1,0,0.3c0,0.1-0.2,0.5-0.2,0.5c-0.3,0.8-0.4,1.1-0.7,1.7c-0.4,0.8-0.6,1.3-0.8,1.6
			l-0.3,0.5c-0.5,0.8-1.4,1.5-2.4,1.7c-0.2,0-0.4,0-0.6,0c-0.5-0.1-1-0.3-1.2-0.6c-0.3-0.4-0.8-1-0.9-1.8L-34.7,266.4z"/>
		<path class="st0" d="M-25.5,257.2c-0.2,0.3-0.4,0.7-0.6,1.2c-0.2,0.4-0.4,1.1-0.5,1.5c-0.3,0.7-0.4,1.3-0.6,1.9
			c-0.2,0.5-0.3,0.6-0.6,0.6s-0.4-0.2-0.4-0.3s0-0.1,0-0.3c0-0.1,0.2-0.5,0.2-0.5c0.3-0.8,0.4-1.4,0.7-2.3c0.2-0.8,0.4-1,0.5-1.3
			l0.2-0.5c0.4-0.8,0.7-1.2,1-1.4c0.1-0.1,0.3-0.2,0.4-0.2c0.3-0.1,0.6-0.2,0.8-0.2c0.5-0.1,0.8,0,1.4,0.3c0.4,0.3,0.5,0.7,0.6,1.1
			c0,0.2,0.1,0.6,0.1,0.7l0,0c0.2-0.3,0.3-0.6,0.5-0.9c0.1-0.1,0.1-0.1,0.2-0.2c0.6-0.9,1.1-1.6,2-2.1c0.7-0.4,1.6-0.6,2.2-0.5
			c1.2,0.2,1.7,0.9,2.2,2l0,0c0.1-0.1,0.2-0.3,0.3-0.4c0,0,0,0,0.1-0.1c0.8-1.1,1.8-1.9,2.9-2.5c0.5-0.2,0.9-0.4,1.2-0.5
			c0.4-0.1,0.9-0.1,1.3,0.1c1.1,0.4,1.3,1.3,1.5,2.2c0.1,0.6,0.1,1.2,0.1,2c0,0.7-0.1,1-0.1,1.7v0.5l-0.1,1.4v0.5
			c0,0.7,0.2,1.6,1.2,1.4h0.2c0.4-0.1,0.6-0.3,1-0.6c0.3-0.2,0.4-0.4,0.9-1.2c0.2-0.4,0.5-0.9,0.7-1.3c0.3-0.7,0.4-1,0.6-1.6
			c0.2-0.5,0.3-0.6,0.6-0.6s0.4,0.2,0.4,0.3s0,0.1,0,0.3c0,0.1-0.2,0.5-0.2,0.5c-0.3,0.8-0.4,1.1-0.7,1.7c-0.4,0.8-0.6,1.3-0.8,1.6
			l-0.3,0.5c-0.5,0.8-0.8,0.9-1.2,1.2s-1,0.5-1.2,0.6c-0.2,0-0.4,0.1-0.5,0c-0.4,0-1-0.2-1.2-0.5c-0.3-0.4-0.6-0.8-0.6-1.2v-0.1
			c-0.1-0.8-0.2-1.6,0-2.4v-0.5c0-0.4,0.1-0.9,0.1-1.3v-0.8c0-0.4-0.1-1-0.1-1.4c0-0.3-0.1-0.6-0.3-1c-0.1-0.3-0.3-0.4-0.4-0.5
			c-0.2-0.2-0.7-0.2-1.1-0.1c-0.9,0.3-1.2,0.5-2.1,1.3c-0.4,0.4-0.7,0.8-1.1,1.3c-0.1,0.2-0.3,0.4-0.4,0.8c-0.1,0.1-0.1,0.3-0.1,0.6
			v0.1c0.1,0.5,0.5,2.6,0.6,3.4c0,0.4,0,0.8,0,1.2c0,1.7-1,2.1-1.4,2.2c-0.1,0-0.1,0-0.2,0l0,0c-0.3,0.1-0.7,0-0.9-0.4
			c-0.5-0.5-0.5-1.1-0.6-1.6c-0.1-1.1,0.2-2.2,0.5-3.3c0.2-0.8,0.5-1.4,0.7-2.1c0.1-0.2,0.1-0.3,0-0.5c0-0.2-0.3-1-0.7-1.4
			c-0.1-0.1-0.3-0.2-0.3-0.3c0,0-0.4-0.5-1.2-0.3c-0.7,0.1-1.5,0.7-2.1,1.7c-0.2,0.2-0.3,0.3-0.4,0.5c-0.1,0.1-0.2,0.3-0.2,0.4
			c0,0,0,0-0.4,0.8c-0.4,0.8-0.9,2.7-1,4.1c-0.1,0.4-0.1,0.7,0,0.9c0,0.2,0,0.4,0,0.5v0.2c0,0.1,0,0.2,0,0.3c0,0.3,0.1,0.6,0.1,0.8
			c0,0.2,0.1,0.4,0.1,0.5c0.1,0.3,0,0.6-0.2,0.8c-0.1,0.1-0.1,0.1-0.2,0.1c-0.1,0-0.1,0.1-0.2,0.1c0,0,0,0-0.1,0
			c-0.2,0-0.4-0.1-0.5-0.2c-0.5-0.5-0.3-1.7-0.3-2.7l0.1-2.5c0-0.2,0-0.3,0-0.6c0-0.2,0.1-0.4,0-0.7c0-0.2,0-0.4,0-0.6
			c0-0.3,0-0.6,0-1c0-0.4-0.1-0.9-0.2-1.2c-0.1-0.4-0.4-0.8-0.9-0.7C-24.9,256.6-25.3,256.8-25.5,257.2z M-15.2,260.7
			c-0.1-0.5-0.2-1-0.3-1.4c-0.3,1-0.6,2.1-0.6,3.2c0,0.2,0,0.2,0,0.3s0.1,0.3,0.2,0.3c0.1,0,0.2,0,0.3-0.2
			C-15.1,262.4-15.1,261.5-15.2,260.7z"/>
	</g>
</g>
</svg>
