<?xml version="1.0" encoding="utf-8"?>
<!-- Generator: Adobe Illustrator 19.1.0, SVG Export Plug-In . SVG Version: 6.00 Build 0)  -->
<svg version="1.1" id="Layer_1" xmlns="http://www.w3.org/2000/svg" xmlns:xlink="http://www.w3.org/1999/xlink" x="0px" y="0px"
	 viewBox="0 0 109.2 70.1" style="enable-background:new 0 0 109.2 70.1;" xml:space="preserve">
<style type="text/css">
	.st0{fill:#FFFFFF;}
</style>
<path class="st0" d="M0,39.5l6.8,1.1c0,0.1-0.1,0.2-0.1,0.4c-1.3,8.4,4.4,16.4,12.9,17.8S36,54.4,37.4,45.9c0-0.1,0-0.2,0-0.4
	l5.5,0.9l1.3,0.2l13.7,2.2c0.1,0.7,0.3,1.4,0.6,2l-5.4,5.3l-2.3-0.4l-0.4,2.6l7.1,1.1l0.4-2.6l-1.6-0.3l4.1-4c0.3,0.2,0.6,0.3,1,0.5
	c0.3,0.1,0.6,0.2,0.8,0.2l0,0c1.5,0.2,3-0.2,4.1-1.2c0.6-0.5,1-1.1,1.3-1.8l4.4,0.7c-1,9.1,5.4,17.5,14.5,19
	c9.5,1.5,18.4-5,19.9-14.4c0.9-5.3-0.8-10.5-4.2-14.3l6.6-6.8c0.3-0.3,0.5-0.9,0.3-1.3c-0.2-0.5-0.6-0.8-1-0.9l-31.2-5l1.7-2.9
	l2.2,0.3c0.6,0.1,1.2,0,1.8-0.2c0.4-0.2,0.8-0.6,0.9-1l0.7-4.7c0.1-0.4-0.1-0.8-0.3-1.1c-0.3-0.3-0.7-0.4-1.1-0.4h-0.4
	c-0.1,0-0.2,0-0.2,0l-11,3c-0.6,0.2-1,0.7-1,1.3V22c0,0.6,0.4,1.1,1,1.2h0.1l4.4,0.7L74,26.8l-26.1-4.2l0.7-4.5l5.6-1.8
	c0.7-0.2,1.1-1,0.9-1.6c-0.2-0.7-1-1.1-1.6-0.9l-4.4,1.4L50.4,7L6.3,0L0,39.5z M72.6,29.2l-4.4,7.5L49.9,25.6L72.6,29.2z M75.4,29.7
	l5,0.8l2.2,6.2c-2.5,1.1-4.7,2.7-6.5,4.7L70.5,38L75.4,29.7z M66.5,44.6l2.6-4.3l5.4,3.3c-0.9,1.5-1.6,3.1-2,4.8L68,47.7
	C67.8,46.5,67.3,45.4,66.5,44.6z M89.8,49.8l-4-11.5c1.8-0.4,3.8-0.5,5.7-0.2c2.7,0.4,5,1.5,7,3.1L90,49.9L89.8,49.8z M86.3,47.7
	l-8-4.9c1.4-1.6,3.2-2.8,5.1-3.7L86.3,47.7z M85.8,50.5l-10.9-1.7c0.4-1.4,1-2.7,1.7-3.8L85.8,50.5z M100.3,39.4
	c-2.3-1.9-5.2-3.3-8.4-3.8c-2.4-0.4-4.8-0.2-7,0.3L83.2,31l21.9,3.5L100.3,39.4z M74.5,51.3l13.7,2.2c0,0.1,0.1,0.1,0.1,0.2
	c0.2,0.2,0.4,0.3,0.7,0.4c0.4,0.1,0.8-0.1,1.1-0.4l10.2-10.6c2.7,3.2,4.1,7.5,3.4,12c-1.3,8.1-8.9,13.6-16.9,12.3
	C79.1,66.1,73.8,59,74.5,51.3z M44.5,43.9L47.2,27l19.6,11.9l-2.6,4.3c-1.6-0.5-3.4-0.1-4.7,1c-0.6,0.5-1,1.1-1.3,1.8L44.5,43.9z
	 M9.4,40.9l9.7,1.6c0,0.1-0.1,0.2-0.1,0.4c-0.3,1.7,0.9,3.2,2.5,3.5c1.7,0.3,3.2-0.9,3.5-2.5c0-0.1,0-0.2,0-0.4l9.7,1.6
	c0,0.1,0,0.2,0,0.4c-1.1,7-7.7,11.8-14.8,10.7c-7-1.1-11.8-7.7-10.7-14.8C9.3,41.2,9.4,41.1,9.4,40.9z M10.1,38.4
	C12.3,33,18,29.6,24,30.6s10.4,5.9,10.8,11.8l-11.7-1.9c-0.2-0.1-0.4-0.2-0.7-0.2c-0.2,0-0.5,0-0.7,0L10.1,38.4z M8.5,3l38.9,6.2
	l-1.1,6.9l-5.6,1.8c-0.7,0.2-1.1,1-0.9,1.6c0.2,0.5,0.6,0.8,1,0.9c0.2,0,0.4,0,0.6,0l4.4-1.4l-0.7,4.5l-0.2,1.2l-3,18.8l-4.4-0.7
	c-0.3-7.3-5.6-13.6-13-14.8c-7.4-1.2-14.5,3.2-17,10l-4.4-0.7L8.5,3z"/>
<g>
</g>
<g>
</g>
<g>
</g>
<g>
</g>
<g>
</g>
<g>
</g>
<g>
</g>
<g>
</g>
<g>
</g>
<g>
</g>
<g>
</g>
<g>
</g>
<g>
</g>
<g>
</g>
<g>
</g>
</svg>
