<?xml version="1.0" encoding="utf-8"?>
<!-- Generator: Adobe Illustrator 19.1.0, SVG Export Plug-In . SVG Version: 6.00 Build 0)  -->
<svg version="1.1" id="Layer_1" xmlns="http://www.w3.org/2000/svg" xmlns:xlink="http://www.w3.org/1999/xlink" x="0px" y="0px"
	 viewBox="0 0 81.8 84.1" style="enable-background:new 0 0 81.8 84.1;" xml:space="preserve">
<style type="text/css">
	.st0{fill:#1C1C1C;}
</style>
<g>
	<path class="st0" d="M51.4,10.5c-6.2-2.1-13.3-3.1-20.7-2.7c-3.9,0.1-7.4-0.7-10.9-1.6c-3.1-0.8-6-1.5-9-1.5
		C7.5,4.8,5.7,7.6,5.3,9.9c-0.4,2.5,0.3,5.4,1.2,8.2c0.2,1,0.6,2,0.7,2.9C8.5,27,7.3,32.9,6,38.6c-0.5,2.1-0.9,4.1-1.2,5.9
		c-1.6,10,2.8,19.2,12.9,26.9c2.6,2,5.8,3.6,9.4,4.9c2.5,0.9,5.3,1.6,8.2,2c3.8,0.7,7.7,0.1,11.8-0.4c3.1-0.5,6.4-0.9,9.7-0.8
		c1.9,0.1,4,0.6,6.2,1.1c6.8,1.6,10,2,11.3-2.3l0.2-0.6l0.4-0.4c0.1-0.1,0.3-0.3,0.4-0.4c1-1.1,1.4-2.2,1.4-3.8c0.1-3.2-1.1-7-2-9.5
		l-0.1-0.4c-0.6-4.3-0.3-8.7-0.1-12.9c0.1-2,0.3-4,0.4-6.1C75.1,31.7,70,22,61.3,15.6C58.6,13.6,55.3,11.8,51.4,10.5 M25.8,80.8
		L25.8,80.8c-4.1-1.4-7.8-3.3-10.8-5.6C3.4,66.3-1.5,55.7,0.4,43.9c0.4-2.1,0.8-4.2,1.2-6.3C2.8,32.2,3.9,27,2.8,22
		c-0.3-0.9-0.5-1.8-0.7-2.8c-0.8-3.1-1.9-6.6-1.2-10.1c0.8-5.3,4.8-9,9.8-9.1c3.7-0.1,7,0.8,10.3,1.7s6.2,1.7,9.6,1.5
		c8-0.3,15.7,0.7,22.4,3.1c4.2,1.4,8,3.4,11.5,5.8c10,7.2,15.7,18.5,15.5,30c0,2.1-0.3,4.3-0.4,6.4c-0.3,4-0.5,7.8,0,11.7
		c1.1,3.6,2.3,7.3,2.2,10.8c0.1,2.6-0.8,4.9-2.6,6.8c-0.1,0.1-0.1,0.2-0.3,0.3c-2.8,8.1-11,6.1-16.5,4.8c-2-0.5-3.8-0.9-5.2-1
		c-3-0.1-5.9,0.3-8.9,0.8c-4.2,0.6-8.6,1.3-13.1,0.5C31.6,82.5,28.6,81.7,25.8,80.8"/>
	<path class="st0" d="M19.6,21.9c1.3-1.6,1.1-4.2-0.8-5.3c-1.9-1.1-4.6,0.8-4.6,2.8c-0.1,0.6,0,1.1,0.2,1.6c0.3,0.7,0.9,1.4,1.6,1.7
		C17.2,23.3,18.8,23,19.6,21.9"/>
	<path class="st0" d="M29.8,28.4c0.3-0.9,0.7-1.8,0.3-2.8c-0.1-0.4-0.3-0.7-0.5-1.1c-0.3-0.4-0.6-0.7-1-0.8
		c-1.1-0.7-2.3-0.6-3.5-0.2c-1.5,0.5-2.5,2.2-2.3,3.8c0,0.1,0,0.1,0,0.2c0.2,1.4,1.3,2.8,2.9,2.9c0.1,0,0.1,0,0.2,0
		C27.5,30.7,29.2,29.9,29.8,28.4"/>
	<path class="st0" d="M20.3,36c0.4-0.5,0.7-1.3,0.9-1.9c0.1-0.5,0-1-0.1-1.3c0-0.1,0-0.1-0.1-0.2v0.1l0,0c0-0.4,0-0.6-0.1-1
		c-0.3-0.7-0.8-1.4-1.5-1.6c-1-0.4-2.1-0.4-3.1,0.1c-1.1,0.6-2.2,1.5-2.4,2.9c-0.1,1.2,0.1,2,0.7,2.9c0.5,0.8,1.4,1.2,2.3,1.5
		C18.2,37.6,19.3,37,20.3,36"/>
	<path class="st0" d="M25.3,43.2c0.1-0.2,0.3-0.3,0.3-0.6c0,0,0,0,0-0.1l0,0c0.7-1.3,0.5-3.3-1.2-3.9c-1.4-0.6-2.7-0.2-3.7,0.9
		c-0.6,0.7-0.8,1.5-0.7,2.3c0.1,0.8,0.5,1.5,1.1,2c0.6,0.7,1.9,0.8,2.8,0.4C24.6,43.9,25,43.6,25.3,43.2"/>
	<path class="st0" d="M19.2,50.3c0-0.2-0.1-0.4-0.2-0.6c-0.2-1-0.9-1.8-1.8-1.9c-1.1-0.1-1.8,0.4-2.3,1.3c-0.1,0.2-0.2,0.3-0.3,0.6
		c-0.6,1.5,0.2,3.1,1.9,3.4C17.9,53.1,19.4,51.9,19.2,50.3"/>
	<path class="st0" d="M24.8,61.4c0.8-1,0.9-2.5,0.1-3.6c0-0.1-0.1-0.1-0.2-0.3c-0.2-0.1-0.3-0.4-0.5-0.5c-0.3-0.2-0.4-0.3-0.6-0.3
		c-0.8-0.4-1.7-0.6-2.6-0.3c-1.1,0.5-2.1,1.8-1.8,3c0.3,1.5,1.2,2.9,2.9,2.9C23.2,62.5,24.1,62.3,24.8,61.4"/>
	<path class="st0" d="M23.7,56.8c0.1,0,0.2,0.1,0.3,0.2C23.6,56.7,23.5,56.6,23.7,56.8"/>
	<path class="st0" d="M38.2,64.3c0.1-0.7-0.2-1.1-0.6-1.6c-0.6-0.7-1.4-1.1-2.4-0.9c-1.3,0.3-1.7,2-0.4,2.7l0,0l0,0l0,0l0,0
		c0.2,0.4,0.4,0.8,0.8,0.9c0.6,0.3,1.2,0.1,1.7-0.2C38,65.1,38.1,64.6,38.2,64.3"/>
	<path class="st0" d="M50,67.7c0.2-0.1,0.5-0.3,0.6-0.4h0.1c0.8-0.6,1.1-1.9,0.4-2.8c-0.5-0.7-1.1-0.8-1.9-1.1
		c-1-0.2-2.1,0.6-2.2,1.6c-0.1,0.5,0,0.8,0.2,1.2c0,0.4,0,0.8,0.2,1.2c0.5,0.8,1.5,0.8,2.2,0.4C49.3,67.9,49.9,67.7,50,67.7"/>
	<path class="st0" d="M59.2,66.9c-0.4,1.4,0.9,2.7,2.2,2.7c0.1,0,0.2,0,0.4,0c0.5,0.2,0.8,0.1,1.3,0c0.1-0.1,0.6-0.2-0.1,0
		c0.1,0,0.2-0.1,0.4-0.1c0.5-0.1,0.9-0.4,1.2-0.8l0,0c0.1-0.2,0.2-0.3,0.2-0.6c0.1-1.1-0.6-1.9-1.5-2.2c-0.1,0-0.2-0.1-0.2-0.1
		c-0.3-0.4-0.8-0.6-1.2-0.6C60.3,64.9,59.4,65.8,59.2,66.9"/>
</g>
<g>
</g>
<g>
</g>
<g>
</g>
<g>
</g>
<g>
</g>
<g>
</g>
<g>
</g>
<g>
</g>
<g>
</g>
<g>
</g>
<g>
</g>
<g>
</g>
<g>
</g>
<g>
</g>
<g>
</g>
</svg>
