<?xml version="1.0" encoding="utf-8"?>
<!-- Generator: Adobe Illustrator 19.1.0, SVG Export Plug-In . SVG Version: 6.00 Build 0)  -->
<svg version="1.1" id="Layer_1" xmlns="http://www.w3.org/2000/svg" xmlns:xlink="http://www.w3.org/1999/xlink" x="0px" y="0px"
	 viewBox="0 0 118.6 66.5" style="enable-background:new 0 0 118.6 66.5;" xml:space="preserve">
<style type="text/css">
	.st0{fill:#FFFFFF;}
</style>
<g>
	<g>
		<path class="st0" d="M0,30.6L0,30.6c0-0.4,0.1-1,0.1-1.3C0.2,29,0.3,28.6,0.5,28c0.4-0.8,0.8-1.2,0.8-1.2c0.4-0.3,0.4-0.3,0.8-0.6
			l0.8-0.3c0.5-0.3,0.9-0.4,1.2-0.4c0.4-0.1,0.8,0,1.4,0.1c0.7,0.1,1.3,0.6,1.7,1.2c0.3,0.6,0.4,0.8,0.4,1.5c0,0.1-0.1,0.6-0.2,0.7
			c0,0.1-0.1,0.1-0.1,0.2c-0.1,0.3-0.2,0.5-0.4,0.7c-0.3,0.3-0.6,0.6-1,0.6c-0.3,0-0.6-0.1-1-0.2c-0.1-0.1-0.3-0.3-0.3-0.5
			s0.1-0.3,0.1-0.4c0.2-0.1,0.4-0.2,0.6-0.1c0.3,0,0.6-0.2,0.8-0.5c0.3-0.5,0.3-0.9,0.1-1.4c-0.1-0.2-0.2-0.5-0.4-0.5
			c-0.3-0.2-0.8-0.4-1.3-0.4c-0.1,0-0.1,0-0.2,0H4.1c-0.1,0-0.2,0-0.4,0c-1.1,0.4-1.8,1.1-2.1,2.2c-0.2,0.7-0.2,1.4-0.2,2.2l0,0
			c0,0.4,0.2,0.8,0.4,1.1c0.2,0.3,0.5,0.7,0.8,1.1c0.4,0.5,1,0.8,1.7,1.3c0.5,0.2,0.9,0.5,1.5,0.6c0.9,0.1,1.3,0.1,2.5,0
			c1.6-0.5,1.9-0.7,2.4-1.1c0.6-0.6,0.8-0.8,1.2-1.3c0.3-0.4,0.5-0.7,0.7-1.2c0.1-0.2,0.2-0.7,0.3-0.9c0-0.9,0-1.6-0.3-2.5
			c-0.2-0.5-0.5-1.2-1-1.7c-0.2-0.1-0.3-0.3-0.4-0.4c-0.1-0.2-0.3-0.5-0.6-0.6c-0.4-0.4-0.8-0.7-1.4-1c-0.3-0.2-0.6-0.3-0.8-0.5
			c-0.5-0.2-1-0.5-1.5-0.8c-0.1-0.1-0.2-0.1-0.2-0.2c-0.3-0.1-0.5-0.3-0.7-0.5c-0.6-0.4-0.8-0.7-1.2-1.2c-0.1-0.1-0.2-0.2-0.3-0.2
			c-0.1-0.2-0.1-0.2-0.3-0.3c-0.2-0.4-0.5-0.8-0.7-1.1c-0.4-1.1-0.4-1.1-0.5-2c0-0.3-0.1-0.5-0.1-0.9c0-0.2,0-0.6,0.1-0.8
			c0-0.2,0-0.5,0.1-0.7c0.2-0.8,0.2-1.5,0.7-2.3c0.1-0.2,0.3-0.4,0.5-0.6l0.1-0.1c0.6-0.6,1.3-1,2.2-1.4c0.4-0.2,0.7-0.3,1.2-0.3
			c0.3,0,0.7-0.1,1-0.1c0.5,0.1,0.3,0,0.6,0.1c0.1,0,0.2,0,0.5,0c0.2,0,0.4,0.1,0.6,0.2c0.2,0,0.3,0.1,0.5,0.1
			c0.7,0.2,1.1,0.5,1.6,1.1c0.4,0.5,0.7,0.9,0.9,1.4c0.2,0.5,0.2,0.5,0.3,1v0.1c0.1,0.6,0.1,1.2,0,2c-0.2,0.7-0.3,1-0.4,1.2
			c-0.3,0.3-0.3,0.4-0.5,0.5c-0.1,0.1-0.1,0.1-0.3,0.3c-0.2,0.2-0.5,0.3-0.7,0.5c-0.5,0.3-0.6,0.3-1.2,0.3c-0.3,0-0.5,0-0.8,0
			c-0.4,0-0.9-0.4-1.2-0.8c-0.2-0.3-0.3-0.4-0.4-0.7c0-0.2-0.1-0.4-0.1-0.7v-0.2c0-0.2,0.1-0.3,0.1-0.3c0.1-0.3,0.1-0.3,0.3-0.7
			c0.1-0.1,0.2-0.2,0.5-0.3c0.2,0,0.4,0,0.6,0.1c0.3,0.2,0,0.7,0,0.8c-0.1,0.2-0.1,0.4-0.1,0.6c0,0.2,0.1,0.6,0.3,0.7
			c0.1,0.1,0.2,0.1,0.3,0.2c0.6,0,0.9-0.1,1.4-0.5c0.1-0.1,0.2-0.2,0.3-0.3c0.4-0.4,0.7-0.7,0.7-1.2c0.1-0.3,0-0.4,0.1-0.6
			c0-0.3,0-0.6,0-1c-0.1-0.7-0.2-0.7-0.5-1.2c-0.2-0.4-0.5-0.7-1-1.1c-0.8-0.5-1.6-0.5-2.6-0.6c-0.1,0-0.2,0-0.3,0
			c-0.2,0-0.4,0.1-0.5,0.1c-0.1,0.1-0.2,0.1-0.2,0.1c-0.3,0.1-0.7,0.3-1,0.4L6.4,12c-0.3,0.2-0.5,0.4-0.7,0.6
			c-0.2,0.3-0.4,0.6-0.7,0.9c-0.3,0.4-0.4,0.8-0.5,1.1c0,0.4-0.1,0.9-0.1,1.3c0,0.3,0.1,1,0,1.2c0,0.1,0.1,0.2,0.1,0.4
			C4.6,18,4.7,18.4,5,18.9c0.1,0.1,0.2,0.3,0.3,0.4c0.2,0.2,0.4,0.4,0.5,0.7c0.3,0.5,0.7,0.7,1,1C7,21.1,7,21.1,7,21.2
			c0.1,0,0.1,0.1,0.2,0.2c0.3,0.2,0.5,0.3,0.6,0.4c0.5,0.3,1,0.7,1.6,0.9c0.8,0.4,1.5,1,2.2,1.6c0.4,0.4,0.9,0.9,1.3,1.5
			s1,1.4,1.1,2.4c0,0,0.1,0.5,0.1,1.4c0,0.5,0,1-0.1,1.1c-0.1,0.4-0.2,0.7-0.3,1c-0.2,0.5-0.3,0.7-0.5,1c-0.5,0.8-1.3,1.2-1.9,2
			C11,35,10.5,35.2,10,35.4c-0.6,0.2-1.3,0.4-2,0.5c-0.8,0.1-1.5,0.1-2.3,0c-1.5-0.3-2.6-0.8-3.6-1.9c-0.3-0.2-0.4-0.4-0.6-0.6
			c-0.1-0.2-0.2-0.5-0.4-0.6c0-0.1-0.3-0.7-0.4-0.8C0.1,31.8,0.1,31.7,0,30.6z"/>
		<path class="st0" d="M23.9,31.5c-0.3,0.8-1,1.7-1.3,2c-0.6,0.5-1.1,0.7-1.7,0.8c-0.7,0.1-1.1,0-1.8-0.2c-0.9-0.4-1.8-1.2-2.1-2.1
			c-0.2-0.7-0.5-1.4-0.5-2.2c-0.1-0.9,0-1.6,0.2-2.4c0.2-1,0.5-2,1-2.8c0.2-0.5,0.5-0.9,0.9-1.4c0.6-0.7,1.4-1.1,2.3-1.4
			c0.1,0,0.2-0.1,0.3-0.1c0.2,0,1.2-0.3,2.2,0.7l0.1,0.1c0.1,0.2,0.3,0.5,0.3,0.6l0,0c0,0.1,0,0.2,0,0.3c-0.1,0.3-0.3,0.6-0.6,0.6
			c-0.4,0.1-0.5,0-0.8-0.6c-0.2-0.6-0.7-0.6-1.1-0.5C21,23,20.4,23.2,20,23.6c0,0,0,0-0.1,0.1c-0.2,0.3-0.4,0.4-0.7,0.7
			c-0.2,0.4-0.5,0.6-0.6,1.2L18.4,26c0,0.1-0.1,0.1-0.1,0.2l-0.1,0.3c-0.2,0.7-0.3,1.5-0.4,2.2c-0.1,0.5-0.1,1.2,0.1,2
			c0.1,0.4,0.2,0.9,0.4,1.2c0.1,0.3,0.3,0.5,0.5,0.7c0.6,0.5,0.8,0.8,1.7,0.7c0.2,0,0.4-0.1,0.6-0.1c1.2-0.5,1.7-1.8,2.2-3l0.1-0.2
			v-0.1c0.4-1,0.8-4.8,0.8-4.8l0.1-1.3c0-0.2,0-0.5,0-0.8c0-0.4,0.3-0.5,0.4-0.6c0.2,0,0.4,0,0.5,0c0.3,0,0.4,0.3,0.4,0.4
			c0.1,0.4-0.1,1.3-0.1,2c-0.1,0.2-0.1,0.6-0.1,0.8c-0.1,0.8-0.2,1-0.3,2.2c-0.1,0.6-0.2,1.4,0,2.4c0.2,0.8,0.6,1.9,1.6,1.7h0.2
			c0.4-0.1,0.7-0.3,1-0.6c0.3-0.2,0.4-0.4,0.9-1.2c0.2-0.4,0.5-1,0.7-1.4c0.3-0.7,0.4-1,0.6-1.6c0.2-0.5,0.3-0.6,0.6-0.6
			c0.3,0,0.4,0.2,0.4,0.3s0,0.1,0,0.3c0,0.1-0.2,0.5-0.2,0.5c-0.3,0.8-0.4,1.1-0.7,1.7c-0.4,0.8-0.6,1.3-0.8,1.6l-0.3,0.5
			c-0.5,0.8-1.4,1.5-2.4,1.7c-0.2,0-0.4,0-0.6,0c-0.5-0.1-1-0.3-1.2-0.6c-0.3-0.4-0.8-0.9-0.9-1.8L23.9,31.5z"/>
		<path class="st0" d="M31.4,22.5c0-0.2,0-0.7,0-1c-0.1-0.8-0.1-1.7-0.1-2.4c0-0.2,0-0.5,0-0.8c0-0.8,0-1.6,0-2.3v-0.9
			c0-0.6,0.1-1.2,0.1-1.8l0.1-1.1c0-0.9,0.2-1.9,0.4-3c0.2-0.8,0.6-1.5,1.2-1.8c0.3-0.1,0.5-0.2,0.8-0.3c0.7-0.1,1.6,0.6,1.9,2
			c0.1,0.8,0.1,1,0.1,1.6v0.9c0,0.2-0.1,1.4-0.1,1.6c-0.3,1.8-0.6,3-1.1,4.4c-0.3,1-0.7,1.9-0.9,2.4l-0.3,0.6
			c-0.3,0.6-0.4,1.1-0.6,1.5c-0.2,0.3-0.2,0.4-0.2,0.7v0.5c0,0.9,0.1,2.2,0.1,3.2l0.1,1.8c0,1,0.1,1.9,0.2,2.8
			c0.4,2.2,0.3,3.2,0.9,6.5c0.5,2.6,1.1,4.7,2,4.6c0.3,0,0.9-0.8,1-1c0.7-1.4,0.5-3.4,0.2-5.2c-0.3-1.5-0.7-2.5-1.5-3.5
			c-1.2-1.7-2.3-2.4-2.4-2.7c-0.1-0.4,0.3-0.8,0.8-0.9c0.2,0,0.8,0.5,1.6,0.3c0.7-0.1,1-0.2,1.4-0.5c0.2-0.2,0.5-0.5,0.7-0.8
			s0.4-0.6,0.6-1c0.1-0.1,0.2-0.3,0.2-0.4c0.2-0.5,0.3-0.9,0.5-1.4s0.3-0.6,0.6-0.6c0.3,0,0.4,0.2,0.4,0.3s0,0.1,0,0.3
			c-0.2,0.6-0.5,1.2-0.7,1.7c-0.3,0.6-0.5,1.2-0.8,1.6c-0.3,0.3-0.5,0.8-0.9,1c-0.4,0.3-0.7,0.5-1.2,0.7c-0.3,0.1-0.5,0.2-1,0.2
			c0.9,0.9,2.2,3,2.8,6c0.1,0.8,0.2,1.7,0.2,2.1c0.1,2.7-1.3,4.6-2.7,4.9c-0.1,0-0.2,0-0.3,0c-1.9-0.3-2.5-2.2-3-5
			c-0.3-1.5-0.4-3.1-0.4-3.2l0,0C32,34.9,32,34.7,32,34.5s-0.1-0.4-0.1-0.6v-0.4c-0.1-0.3-0.1-0.6-0.1-0.9v-0.1
			c-0.3-2.7-0.4-5-0.5-6.7l-0.4,1.1c-0.2,0.5-0.3,0.6-0.6,0.6c-0.3,0-0.4-0.2-0.4-0.3s0-0.1,0-0.3c0-0.1,0.2-0.5,0.2-0.5
			c0.3-0.8,0.6-1.3,0.8-2.3l0.3-0.9v-0.5L31.4,22.5z M32.7,20.4l0.1-0.2c0.2-0.4,0.4-1.3,0.7-1.9c0,0,0.2-0.7,0.3-1
			c0.2-0.7,0.2-0.8,0.3-1.2c0.2-0.9,1-4.2,0.7-6.1c-0.1-0.6-0.2-0.8-0.3-1c-0.1-0.2-0.3-0.3-0.5-0.3c-0.3,0.1-0.5,0.4-0.6,0.6
			c-0.2,0.6-0.2,0.8-0.3,1c-0.2,1.1-0.3,2.3-0.4,3.8c0,1.2-0.1,2.6-0.1,4v1.6C32.6,19.8,32.6,20.2,32.7,20.4z"/>
		<path class="st0" d="M40,20.2c-0.2,0-0.3,0-0.5,0c-0.3,0.1-0.5,0.1-0.8,0.2c-0.2,0-0.3,0-0.5-0.1C38.1,20.2,38,20.1,38,20
			c0-0.3,0.1-0.4,0.3-0.5c0.1-0.1,0.3-0.1,0.4-0.1s0.2-0.1,0.3-0.1l0.7-0.1c0.3,0,0.6,0,0.9-0.1c0-0.9,0.1-1.8,0.1-2.7v-0.1
			c0-0.5,0.1-1,0.1-1.5c0-0.2,0.1-0.4,0.1-0.6c0-0.3,0.1-0.6,0.1-0.8c0.1-0.4,0.2-0.9,0.4-1.4c0.1-0.2,0.3-0.5,0.4-0.7
			c0.2-0.2,0.5-0.4,0.8-0.4c0.4-0.1,0.7,0,0.8,0.2c0.1,0,0.2,0.1,0.2,0.2c0.1,0.1,0.3,0.4,0.3,0.7c0.1,0.6,0.1,1.2,0.1,1.9
			c0,0.2,0,0.4-0.1,0.6c-0.1,0.6-0.3,1.3-0.5,2c-0.3,1.1-0.4,1.4-0.5,1.6l-0.2,0.4h0.2c0.3,0,0.8-0.1,1.2-0.2
			c0.6-0.1,0.9-0.1,1.1-0.1s0.4-0.1,0.5,0c0.1,0,0.2,0,0.3,0.1c0.2,0.3,0.1,0.4,0.1,0.7c0,0.1-0.2,0.3-0.4,0.3h-0.1
			c-0.8,0-1.7,0.1-2.6,0.3c-0.2,0.1-0.7,0.1-0.9,0.1c-0.1,0-0.1,0.3-0.2,0.5l-0.1,0.2c-0.1,0.3-0.1,0.4-0.1,0.6c0,0.1,0,0.4,0,0.8
			c0,0.2,0,0.4,0,0.7c0,0.2,0,0.5,0,0.7c0,0.5,0,1,0,1.5c0,0.7,0,1.2,0.1,1.8c0,0.2,0.1,0.6,0.3,1c0.1,0.1,0.1,0.2,0.1,0.3
			c0.1,0.2,0.2,0.5,0.5,0.7c0.3,0.3,0.8,0.3,1.2,0.2c0.2,0,0.8-0.2,1.3-0.6c0.2-0.2,0.3-0.1,0.8-0.8c0.2-0.4,0.5-0.9,0.7-1.3
			c0.3-0.7,0.5-1.2,0.7-1.8c0.2-0.5,0.3-0.7,0.6-0.6c0.3,0,0.4,0.2,0.4,0.3s0,0.2,0,0.4l-0.2,0.8c-0.2,0.5-0.4,1-0.7,1.7
			c-0.4,0.8-0.6,1.2-0.8,1.5c-0.1,0.2-0.2,0.4-0.5,0.6c-0.5,0.6-0.8,0.6-1.3,0.9c-0.4,0.2-0.8,0.3-1,0.3c-0.9,0-1.6-0.1-2.2-0.9
			c-0.3-0.3-0.5-0.8-0.7-1.1c-0.3-0.8-0.3-1.3-0.3-1.7c-0.2-0.4-0.1-1.9,0-2.1c0-0.1-0.1-0.2-0.1-0.1c-0.1,0.1-0.1,0.4-0.1,0.4
			c-0.2,0.5-0.3,1.1-0.4,1.4c-0.1,0.4-0.2,0.5-0.6,0.4c-0.2,0-0.4-0.1-0.4-0.3c0-0.1,0-0.2,0-0.3c0.1-0.1,0.1-0.4,0.2-0.6l0.2-0.5
			l0.2-0.7l0.3-1c0-0.4,0.1-0.7,0.2-1.1c0-0.2,0.1-0.5,0.2-0.8c0-0.3,0.1-0.5,0.1-0.9v-0.1C40.4,20.1,40.1,20.2,40,20.2z M41.8,17.1
			v0.4l-0.1,1.3c0.2-0.3,0.3-0.7,0.5-1.2c0.1-0.3,0.2-0.6,0.3-0.9c0.2-0.6,0.3-1.3,0.4-2c0-0.2,0.1-0.3,0.1-0.5
			c0.1-0.4,0.1-0.8,0.1-1.1s0-0.9-0.2-1c-0.1-0.1-0.1-0.1-0.2,0c-0.2,0.1-0.2,0.2-0.3,0.3l0,0c-0.1,0.3-0.2,0.6-0.2,0.9v0.2L42.1,15
			v0.5v0.3L41.8,17.1z"/>
		<path class="st0" d="M53.1,27.1c0.4-0.1,0.8-0.2,0.9-0.4c0.3-0.2,0.4-0.4,0.9-1.2c0.2-0.4,0.5-0.9,0.7-1.3
			c0.3-0.7,0.5-1.2,0.7-1.8c0.1-0.4,0.2-0.5,0.4-0.6c0.1,0,0.1,0,0.2,0c0.3,0,0.4,0.2,0.4,0.3s0,0.1,0,0.3c0,0.1-0.2,0.5-0.2,0.5
			c0,0.1-0.1,0.2-0.1,0.2c-0.2,0.7-0.4,1.2-0.8,1.8c-0.4,0.8-0.6,1.3-0.8,1.6L55.1,27c-0.5,0.8-0.9,1-1.2,1.2
			c-0.3,0.2-0.7,0.3-1,0.3h-0.2c-1.3-0.1-1.8-0.6-2.3-1.4c-0.2-0.3-0.3-0.5-0.4-0.9c-0.1-0.1-0.2-0.4-0.2-0.5
			c-0.2-0.6-0.4-1.1-0.4-1.6c-0.1-0.5-0.2-0.8-0.2-1c-0.1-0.2-0.1-0.5-0.2-0.8c-0.2,0.8-0.5,1.4-0.6,1.9c-0.1,0.4-0.2,0.5-0.4,0.6
			c-0.1,0-0.1,0-0.2,0c-0.3,0-0.4-0.2-0.4-0.3s0-0.1,0-0.3c0-0.1,0.2-0.5,0.2-0.5c0.3-0.8,0.6-1.3,0.8-2.3c0.1-0.2,0.2-0.7,0.4-1.2
			v-0.5c0-0.5,0-0.9,0-1.2c-0.1-0.8-0.1-1.6-0.2-2.4c0-0.2,0-0.5-0.1-0.8c-0.1-0.8-0.1-1.6-0.1-2.3v-0.9c0-0.6,0-1.2,0-1.8V9.2
			c0-1,0.1-1.9,0.3-3c0.2-0.9,0.5-1.5,1.2-1.9C50,4.2,50.3,4.1,50.6,4c0.1,0,0.2,0,0.2,0c0.9,0.1,1.4,0.7,1.7,1.9l0.1,0.6
			c0.1,0.4,0.1,0.6,0.1,1.1v0.9c0,0.2,0,1.4-0.1,1.6c-0.2,1.8-0.4,3-1.1,5.1c-0.1,0.4-0.4,1.3-0.6,1.8l-0.3,0.6
			c-0.2,0.6-0.4,1.1-0.6,1.6c-0.1,0.3-0.1,0.5-0.1,0.7V20c0.1,0.6,0.2,1.2,0.3,2l0.2,1c0.2,1,0.4,2,0.9,2.8c0.3,0.5,0.4,0.6,0.8,0.9
			C52.4,27.2,52.8,27.2,53.1,27.1z M49.8,17.4l0.1-0.2l0,0c0.2-0.5,0.4-1.4,0.6-2l0.4-1.4l0.1-0.5l0.1-0.3c0.2-1.3,0.8-4.2,0.5-5.9
			c0-0.2-0.1-0.3-0.1-0.4c-0.1-0.1-0.1-0.2-0.1-0.2c0-0.2-0.1-0.3-0.2-0.6c-0.1-0.2-0.3-0.3-0.5-0.3h-0.2c-0.1,0.1-0.3,0.4-0.3,0.6
			l-0.1,0.4C50,6.8,49.9,7,49.9,7.3c-0.1,1.1-0.2,2.2-0.2,3.8c0,1.2,0,2.6,0.1,4l0.1,1.6C49.8,16.9,49.8,17.2,49.8,17.4z"/>
		<path class="st0" d="M63.6,24.5c-0.3,0.8-1,1.7-1.3,2c-0.6,0.5-1.1,0.7-1.7,0.8c-0.7,0.1-1.1,0-1.8-0.2c-0.9-0.4-1.8-1.2-2.1-2.1
			c-0.2-0.7-0.5-1.4-0.5-2.2c-0.1-0.9,0-1.6,0.2-2.4c0.2-1,0.5-2,1-2.8c0.2-0.5,0.5-0.9,0.9-1.4c0.6-0.7,1.4-1.1,2.3-1.4
			c0.1,0,0.2-0.1,0.3-0.1c0.2,0,1.2-0.3,2.2,0.7l0.1,0.1c0.1,0.2,0.3,0.5,0.3,0.6l0,0c0,0.1,0,0.2,0,0.3c-0.1,0.3-0.3,0.6-0.6,0.6
			c-0.4,0.1-0.5,0-0.8-0.6c-0.2-0.6-0.7-0.6-1.1-0.5c-0.3,0.1-0.9,0.3-1.3,0.7c0,0,0,0-0.1,0.1c-0.2,0.3-0.4,0.4-0.7,0.7
			c-0.2,0.4-0.5,0.6-0.6,1.2L58.1,19c0,0.1-0.1,0.1-0.1,0.2l-0.1,0.3c-0.2,0.7-0.3,1.5-0.4,2.2c-0.1,0.5-0.1,1.2,0.1,2
			c0.1,0.4,0.2,0.9,0.4,1.2c0.1,0.3,0.3,0.5,0.5,0.7c0.6,0.5,0.8,0.8,1.7,0.7c0.2,0,0.4-0.1,0.6-0.1c1.2-0.5,1.7-1.8,2.2-3l0.1-0.2
			v-0.1c0.4-1,0.8-4.8,0.8-4.8l0.1-1.3c0-0.2,0-0.5,0-0.8c0-0.4,0.3-0.5,0.4-0.6c0.2,0,0.4,0,0.5,0c0.3,0,0.4,0.3,0.4,0.4
			c0.1,0.4-0.1,1.3-0.1,2c-0.1,0.2-0.1,0.6-0.1,0.8c-0.1,0.8-0.2,1-0.3,2.2c-0.1,0.6-0.2,1.4,0,2.4c0.1,0.8,0.6,1.9,1.6,1.7h0.2
			c0.4-0.1,0.7-0.3,1-0.6c0.3-0.2,0.4-0.4,0.9-1.2c0.2-0.4,0.5-1,0.7-1.4c0.3-0.7,0.4-1,0.6-1.6c0.2-0.5,0.3-0.6,0.6-0.6
			c0.3,0,0.4,0.2,0.4,0.3s0,0.1,0,0.3c0,0.1-0.2,0.5-0.2,0.5c-0.3,0.8-0.4,1.1-0.7,1.7c-0.4,0.8-0.6,1.3-0.8,1.6l-0.3,0.5
			c-0.5,0.8-1.4,1.5-2.4,1.7c-0.2,0-0.4,0-0.6,0c-0.5-0.1-1-0.3-1.2-0.6c-0.3-0.4-0.8-0.9-0.9-1.8L63.6,24.5z"/>
		<path class="st0" d="M82.3,21.7c0.2-0.2,0.4-0.4,0.9-1.1c0.2-0.4,0.5-0.9,0.7-1.3c0.3-0.7,0.5-1.2,0.7-1.8
			c0.1-0.4,0.2-0.6,0.4-0.6c0.1,0,0.1,0,0.2,0c0.3,0,0.4,0.2,0.4,0.3s0,0.2,0,0.4l-0.2,0.8c-0.2,0.5-0.4,1-0.7,1.7
			c-0.4,0.8-0.6,1.2-0.8,1.5l-0.3,0.5c-0.5,0.7-0.8,1-1.2,1.3c-0.3,0.1-0.5,0.2-0.7,0.2c-0.1,0-0.3,0-0.4,0c-0.9,0-1.1-0.1-1.8-0.9
			c-0.2-0.3-0.5-0.8-0.7-1.2l-0.2-0.7c0,0,0-0.1-0.1-0.2c-0.1,0-0.1,0.1-0.1,0.2c-0.5,1.8-1.4,3.5-3.5,3.9c-0.8,0.1-1.4,0.1-2.1-0.1
			c-1.1-0.3-2.1-1.2-2.4-2.1c-0.2-0.4-0.3-0.9-0.4-1.3c0-0.3-0.1-0.6-0.1-0.9c-0.1-0.9-0.1-1.6,0.1-2.4c0.3-1.1,0.7-2,1.2-2.8
			c0.2-0.4,0.7-0.9,1.1-1.3l0.1-0.1c0.8-0.7,1.7-1.1,2.7-1.5l0.4-0.1c0.1,0,0.9-0.2,1.8,0.2c-0.1-0.8-0.1-1.7-0.1-2.5V9.2l-0.1-3.1
			c0-0.7-0.1-1.6,0-1.9c0-0.5,0-1.1,0.2-1.7c0.2-1,0.6-2.3,1.7-2.5c0.2,0,0.4,0,0.6,0c1,0.3,1.2,1,1.4,1.7c0.2,1.6,0.2,2.7,0.2,4.3
			v0.1c-0.1,1.5-0.3,2.9-0.6,4c-0.1,0.9-0.2,1.4-0.3,1.9c-0.1,0.4-0.2,1-0.3,1.5c-0.2,0.7-0.4,1.5-0.5,2.3l-0.1,0.4
			c-0.2,0.6-0.3,1.6-0.2,2.3v0.1c0.2,1.2,0.5,3.8,2.1,3.5C81.6,22.2,81.9,22.1,82.3,21.7z M77.9,16.6l-0.1-0.3
			c-0.1-0.5-0.2-1.2-0.2-1.8c-0.2,0-0.4-0.1-0.6-0.6c-0.3-0.6-0.8-0.7-1.4-0.5c-0.7,0.1-2,0.6-2.7,1.6c-0.3,0.4-0.7,0.7-1,1.2
			c-0.2,0.4-0.2,0.5-0.2,0.5L71.5,17c-0.3,0.7-0.4,1.5-0.5,2.3c-0.1,0.5,0,1.2,0.1,2c0,0.3,0.2,0.9,0.5,1.2c0.1,0.2,0.3,0.6,0.5,0.7
			c0.7,0.5,1.2,0.6,2.2,0.5c0.2,0,0.6-0.1,0.9-0.2c1.1-0.6,1.9-1.8,2.3-4.7C77.8,17.6,77.9,16.6,77.9,16.6z M78.7,12.8
			c0,0.1,0,0.2,0.1,0.3c0.1-0.2,0-0.5,0.2-0.7c0.3-1.7,0.6-3.2,0.8-4.7c0.1-0.9,0.2-1.9,0.3-2.8c0.1-0.9,0-1.6-0.1-2.6
			c-0.1-0.6-0.2-0.9-0.5-0.9h-0.1C79.2,1.4,79,1.6,79,2c-0.1,0.4-0.2,1-0.2,1.5c-0.1,0.9-0.1,1.9-0.1,3c0,0.8,0,1.6,0.1,2.4
			c0,0.5,0.1,1.1,0,1.6c0.1,0.4,0.1,0.8,0,1.1C78.7,12.1,78.6,12.5,78.7,12.8z"/>
		<path class="st0" d="M89.9,22.2c-0.3,0-0.6,0.1-0.9,0.1c-0.7,0-1.8-0.2-2.6-0.7c-1.2-1-1.7-2.5-1.9-3.5c-0.1-0.3-0.1-0.6-0.1-0.8
			c0-0.3,0-0.5,0-0.8c0-0.1,0-0.3,0-0.5c0-0.1,0-0.3,0-0.5c0-0.1,0-0.2,0.1-0.3c0.4-2.4,1.8-4.2,2.1-4.4c0.2-0.2,0.4-0.4,0.7-0.6
			c0.3-0.3,0.7-0.3,0.8-0.3c0.1,0,0.2-0.1,0.7-0.2c0.8-0.1,1.2,0,1.7,0.3c0.3,0.3,0.6,0.7,0.7,1.2c0.1,0.3,0.1,0.8,0,1.1
			c-0.3,1.2-0.7,2.2-1.8,3.5c-0.5,0.6-0.8,1-1.5,1.4l-0.2,0.2c-0.3,0.2-0.6,0.2-1,0.5c-0.1,0.1-0.2,0.2-0.3,0.3
			c-0.1,0.1-0.3,0.1-0.4,0.2l-0.1,0.1c0,0.1-0.1,0.1,0,0.2c0.2,1.2,1,2,1.5,2.2c0.2,0.1,0.3,0.2,0.4,0.2c0.3,0.1,0.8,0.1,1.1,0
			c0.2,0,0.4,0,0.6-0.1c0.5-0.1,1-0.3,1.3-0.5c0.8-0.5,1.4-1.1,1.9-1.9c0.2-0.3,0.5-0.9,0.7-1.3c0.3-0.6,0.5-1,0.7-1.7
			c0.1-0.3,0.1-0.4,0.3-0.4c0.1,0,0.1,0,0.2,0c0.3,0,0.4,0.1,0.4,0.3c0,0.1,0,0.2,0,0.3l-0.2,0.5c-0.3,0.9-0.5,1.3-0.9,2
			c-0.3,0.9-0.7,1.4-0.9,1.6l-0.2,0.2c-0.5,0.8-1.1,1.1-1.9,1.6C91,22,90.4,22.1,89.9,22.2z M86,17.3c0.2-0.2,0.7-0.3,0.8-0.5
			c1.1-0.9,1.5-1,2.1-1.9c0.2-0.4,0.5-0.8,0.6-1.1c0.4-0.7,0.5-1.6,0.4-2.4c-0.1-0.3-0.4-0.7-0.7-0.6c-0.3,0-0.4,0.1-0.5,0.2
			c-0.1,0.1-0.1,0.1-0.1,0.1s-0.9,0.4-1.7,2c-0.2,0.2-0.2,0.3-0.3,0.5c-0.2,0.4-0.3,0.8-0.5,1.2c-0.2,0.7-0.1,0.9-0.1,0.9
			c0,0.1-0.1,0.3-0.1,0.5c0,0.1,0,0.2,0,0.3c0,0.4-0.1,0.4,0,0.7v0.2L86,17.3z"/>
		<path class="st0" d="M105.2,7.6c1.1,0.4,1.4,1.2,1.7,2.5c0.1,0.3,0.1,0.9,0.1,1.7c0,0.7-0.1,1.1-0.1,1.7V14l-0.1,1.5V16
			c0,0.7,0.3,1.6,1.3,1.4h0.2c0.4-0.1,0.6-0.3,1-0.6c0.3-0.2,0.4-0.4,0.9-1.2c0.2-0.4,0.5-1,0.7-1.4c0.3-0.7,0.4-1,0.6-1.6
			c0.2-0.5,0.3-0.6,0.6-0.6c0.3,0,0.4,0.2,0.4,0.3s0,0.1,0,0.3c0,0.1-0.2,0.5-0.2,0.5c-0.3,0.8-0.4,1.1-0.7,1.7
			c-0.4,0.8-0.6,1.3-0.8,1.6l-0.3,0.5c-0.5,0.8-0.8,0.9-1.2,1.2c-0.4,0.3-1,0.5-1.2,0.6c-0.2,0-0.4,0.1-0.5,0c-0.4,0-1-0.2-1.3-0.5
			c-0.3-0.4-0.6-0.8-0.6-1.3c-0.1-0.8,0-1.4,0-2.2v-0.6c0-0.4,0.1-1,0-1.4v-0.8c0-0.4-0.1-1-0.2-1.4c0-0.3-0.2-0.6-0.3-0.9
			c-0.1-0.3-0.3-0.4-0.4-0.5c-0.2-0.2-0.6-0.2-0.9-0.1c-0.5,0.1-1.1,0.4-1.8,1.4c-0.2,0.2-0.3,0.3-0.4,0.5c-0.1,0.1-0.2,0.3-0.2,0.4
			c0,0,0,0-0.4,0.8s-0.8,2-0.8,4.1c0,0.4,0,0.7,0,0.9s0,0.4,0,0.5c0,0.2,0,0.2,0,0.3c0,0.5,0,1,0.1,1.5c0,0.7-0.1,0.8-0.5,0.9h-0.2
			c-0.2,0-0.3,0-0.5-0.1c-0.1-0.1-0.1-0.3-0.2-0.4c0-0.2-0.1-0.8-0.1-1.1v-1.3l0.1-2.5c0-0.2,0-0.3,0-0.6c0-0.2,0-0.4-0.1-0.7
			c0-0.2,0-0.4,0-0.6c0-0.3,0-0.6,0-1c-0.1-0.4-0.2-1.4-0.2-1.8c-0.1-0.4-0.4-0.6-0.7-0.5c-0.5,0.1-0.7,0.3-1,0.7
			c-0.2,0.2-0.4,0.6-0.7,1.2c-0.2,0.4-0.5,1.5-0.7,1.9c-0.3,0.8-0.4,1.2-0.5,1.8c-0.2,0.5-0.3,0.6-0.6,0.6c-0.3,0-0.4-0.2-0.4-0.3
			s0-0.1,0-0.3c0-0.1,0.1-0.5,0.1-0.5c0.3-0.8,0.4-1.3,0.6-2c0.2-0.8,0.6-2,1.2-2.9c0.4-0.6,0.5-0.8,0.7-1c0.1-0.1,0.3-0.3,0.4-0.3
			c0.3-0.1,0.6-0.2,0.8-0.2c0.5-0.1,0.8,0,1.4,0.3c0.4,0.3,0.6,0.7,0.7,1.2c0,0.2,0,0.7,0.1,0.9l0,0c0.2-0.3,0.3-0.6,0.5-0.9
			c0.1-0.1,0.1-0.1,0.2-0.2c0.5-0.9,1.1-1.6,2-2.1c0.5-0.3,1-0.4,1.2-0.5C104.6,7.4,104.8,7.4,105.2,7.6z"/>
		<path class="st0" d="M118.1,8c-0.7,0.2-1,0.2-1.3,0.2l-2.1,0.4L114,8.7c-0.2,0.1-0.6,0.1-0.9,0.2c-1.3,0.2-1.4,0.3-1.5-0.1V8.7
			c-0.1-0.4,0.1-0.7,0.3-0.8l1.5-0.2l0.5-0.1c0.7-0.1,0.8-0.1,1-0.2c0.1,0,0.2,0,1.3-0.2c0.2,0,0.6-0.1,0.9-0.2
			c1.3-0.2,1.5-0.3,1.5,0.1v0.1c0,0.2-0.1,0.7-0.3,0.7L118.1,8z"/>
		<path class="st0" d="M28.2,52.1l-0.1-3.3c-0.1-0.8,0-1.5,0.1-2.3c0-0.4,0-0.8,0-1.1c0-0.8,0.1-1.6,0.4-2.5
			c0.1-0.7,0.8-1.5,1.8-1.7c0.1,0,0.3,0,0.3,0c1,0,1.5,0.2,2,0.9c0.2,0.4,0.3,0.8,0.3,0.9c0.1,0.8,0.1,1.7,0,2.8
			c0,0.3-0.1,0.6-0.2,0.9l-0.3,1.1L32.1,49c-0.1,0.3-0.3,0.8-0.5,1c-0.1,0.3-0.3,0.5-0.5,0.8c-0.3,0.6-0.7,1-1.1,1.4
			c-0.2,0.2-0.3,0.3-0.5,0.5l0.1,1.2c0,0.7-0.1,1.7,0,2.4c0.1,0.6,0,1.2,0.1,1.8v0.8V59c0.1-0.1,0.2-0.3,0.3-0.5l0.6-1.3l0.2-0.5
			c0.1-0.1,1-2.2,2.7-2.8c0.2-0.1,0.5-0.1,0.9-0.2c0.4-0.1,0.7-0.1,1.2,0.1c1.2,0.7,1.5,1.5,1.6,1.8v0.2c0,0.1,0,0.2,0,0.3
			c0,2.4-1,3.8-1,3.9c-0.2,0.3-0.4,0.6-0.6,0.8c-0.1,0.2-0.2,0.3-0.2,0.6c0.1,0.5,0.3,0.9,0.6,1.3l0.2,0.3c0.2,0.2,0.4,0.4,0.7,0.5
			c0.4,0.1,0.7,0.1,0.9,0.1c0.3-0.1,0.8-0.2,1.2-0.6c0.3-0.2,0.4-0.4,0.9-1.2c0.2-0.4,0.5-0.9,0.7-1.3c0.3-0.7,0.6-1.2,0.7-1.8
			c0.2-0.5,0.3-0.6,0.7-0.6c0.3,0,0.4,0.2,0.4,0.3s0,0.1,0,0.3c0,0.1-0.2,0.5-0.2,0.5c-0.3,0.8-0.5,1.3-0.9,2
			c-0.4,0.8-0.6,1.3-0.8,1.6l-0.3,0.5c-0.6,0.9-1.3,1.3-2.2,1.4c-0.2,0-0.6,0.1-0.9,0.1c-0.5-0.1-1-0.3-1.5-0.7
			c-0.4-0.4-0.7-0.6-0.9-0.9c-0.2-0.4-0.3-0.5-0.4-0.6c-0.1-0.2-0.2-0.3-0.2-0.4C34,62.1,33.9,62,33.8,62l-0.2,0.1
			c-0.1,0.1-0.2,0.1-0.5,0.1c-1.4,0.1-1.8-0.5-2-0.9C31,61.2,31,61,31,60.8c0.1-1,0.7-1.6,1.8-1.8c0.6-0.1,1.2,0.1,1.7,0.5
			c0.1,0.1,0.2,0.2,0.2,0.2c0.2-0.2,0.5-0.6,0.6-1.1l0.1-0.4c0.5-1.6,0.3-2.4,0.1-2.8C35.3,55,35,55,35,55c-0.3-0.1-0.7-0.1-1-0.1
			c-1.4,0.2-2.2,2.1-2.3,2.3l-0.3,0.5c-0.3,0.7-0.7,1.4-1.1,2.3c-0.1,0.3-0.2,0.6-0.3,0.9c0,0.2-0.1,0.3-0.1,0.5
			c-0.1,0.5-0.2,1-0.3,1.3c-0.1,0.4-0.1,0.8,0,1.3v0.1c0,0.3,0,0.6,0,0.8c0,0.4,0,0.7,0,1.1c0,0.2-0.1,0.4-0.4,0.5H29
			c-0.3,0-0.5-0.2-0.6-0.4l0,0c0-0.3,0-0.6,0-0.9v-1.1c0-2.1-0.2-5.1-0.2-5.3v-0.3V58c0,0,0.1-1,0-1.8c-0.1-0.9-0.1-1.7-0.1-1.7
			c0-0.3,0-0.6,0-1c-0.2,0.1-0.4,0.1-0.6,0.1l-0.3,0.1c-0.5,0.1-0.9,0-1.3-0.1c-0.4,0-1-0.4-1.2-0.6c-0.1-0.1-0.7-0.6-0.8-0.7
			l-0.4-0.4c-0.3-0.3-0.5-0.6-0.7-1.2c0-0.2-0.3-0.9-0.1-1.2c0.1-0.1,0.2-0.2,0.4-0.2c0.1-0.1,0.2,0,0.3,0c0.2,0,0.2,0.3,0.3,0.5
			l0.2,0.5c0.1,0.4,0.2,0.4,0.3,0.7c0.1,0.3,0.4,0.6,0.6,0.7c0.2,0.2,0.5,0.5,1.1,0.8c0.7,0.2,1.1,0.1,1.5,0.1
			C27.7,52.3,28,52.2,28.2,52.1z M29.4,51.1c0.3-0.3,0.5-0.6,0.8-0.9c0.1-0.2,0.3-0.5,0.4-0.7c0.3-0.5,0.3-0.7,0.6-1.5l0.2-0.5
			c0.2-0.5,0.3-0.9,0.3-1.4l0.1-0.6V45c0-0.5,0-0.9-0.1-1.3c0-0.1-0.1-0.4-0.1-0.6c-0.2-0.5-0.6-0.6-1-0.5c-0.1,0-0.2,0-0.4,0.1
			c-0.3,0.2-0.4,0.5-0.5,0.8c-0.2,0.6-0.2,1.2-0.3,2c-0.1,1.4-0.1,2.6-0.1,3.6C29.4,49.8,29.4,50.5,29.4,51.1z M33.6,60.2
			c-0.1-0.2-0.5-0.4-0.7-0.4s-0.4,0.2-0.6,0.3s-0.2,0.6-0.1,0.8s0.6,0.2,0.8,0.2c0.2,0,0.4-0.2,0.6-0.3
			C33.8,60.7,33.8,60.4,33.6,60.2z"/>
		<path class="st0" d="M51.8,62c-0.3-0.2-0.5-0.3-0.7-0.5c-0.4-0.3-0.8-1.1-0.9-1.4c-0.4,0.7-0.8,1.1-0.8,1.1l-0.5,0.6
			c-0.8,0.8-1.4,1.2-2.2,1.3c-0.3,0.1-0.6,0.1-0.9,0c-0.3,0-0.7-0.2-1.1-0.4c-0.1-0.1-0.2-0.1-0.3-0.2l0,0l0,0
			c-0.2-0.1-0.3-0.3-0.4-0.4c-0.4-0.6-0.8-1.4-1-2.5l-0.2-1.7c0-0.2,0-0.5,0-0.5v-0.1l0,0h-0.1c-0.1,0.1-0.1,0.4-0.1,0.4
			c-0.2,0.5-0.3,1.1-0.4,1.4c-0.2,0.4-0.2,0.5-0.7,0.4c-0.2,0-0.4-0.1-0.4-0.3c0-0.1,0-0.2,0-0.3c0.1-0.1,0.1-0.4,0.2-0.6
			c0.3-0.9,0.4-1.3,0.7-2.3c0.1-0.5,0.2-0.8,0.3-1.4c0.1-0.3,0.2-1.1,0.2-1.4c0.1-0.2,0.1-0.3,0.1-0.5l0.1-0.2v-0.1
			c0.1-0.4,0.3-0.6,0.7-0.7c0.3,0,0.6,0.2,0.8,0.5c0.1,0.2,0,0.2,0,0.4c-0.3,1.2-0.3,2.3-0.2,3.6c0,0.2,0,0.4,0,0.6v0.1
			c0,0.7,0.1,1.3,0.2,2l0.1,0.8c0.1,0.6,0.4,1.1,0.6,1.5c0.3,0.6,0.8,0.9,1.3,0.8c0.4-0.1,0.8-0.1,1.1-0.3c1-0.8,1.5-1.6,2.2-2.9
			c0.2-0.3,0.2-0.8,0.1-1.1c-0.1-1-0.2-2.1-0.2-3.3v-0.9c0-0.4,0-0.8,0-1.2c0-0.6,0.2-1.2,0.4-1.9c0.1-0.4,0.6-0.7,1-0.8
			s0.7,0,0.9,0.2l0.1,0.1c0,0,0,0,0.1,0.1c0.3,0.3,0.4,0.7,0.5,1.3v0.5c0,0.3,0.1,0.6,0,0.7v0.2c0,0.2,0,0.6-0.1,0.8
			c-0.2,1.6-1.1,4.1-1.1,4.4l0,0l0,0l-0.1,0.2c0,0.1,0,0.2,0,0.2c0.1,0.6,0.3,1.2,0.6,1.8c0.2,0.4,0.8,0.6,1.3,0.5
			c0.2,0,0.9-0.2,1.3-0.7c0.2-0.2,0.4-0.4,0.9-1.1c0.2-0.4,0.5-0.9,0.7-1.3c0.3-0.7,0.6-1.2,0.8-1.8c0.2-0.5,0.3-0.7,0.7-0.6
			c0.3,0,0.4,0.2,0.4,0.3s0,0.2,0,0.4s-0.1,0.4-0.3,0.8c-0.2,0.5-0.4,1-0.8,1.7c-0.4,0.8-0.6,1.2-0.8,1.5l-0.3,0.5
			c-0.6,0.9-1,1-1.4,1.3c-0.4,0.2-0.7,0.3-1.1,0.3C52.7,62.2,52.2,62.2,51.8,62z M50.8,55.9c0.3-1.1,0.9-3.7,0.6-4.6l-0.1-0.1V51
			c0,0-0.1,0-0.2,0L51,51.1l0,0c0,0-0.1,0.1-0.1,0.2c-0.2,0.6-0.2,1.1-0.2,1.7v2.1C50.8,55.1,50.8,55.7,50.8,55.9z"/>
		<path class="st0" d="M58.5,54.3l-0.7,1.9c-0.2,0.4-0.2,0.5-0.5,0.6c-0.1,0-0.1,0-0.2,0c-0.3,0-0.4-0.2-0.4-0.3s0-0.1,0-0.3
			c0-0.1,0.2-0.5,0.2-0.5c0-0.1,0.1-0.1,0.1-0.2c0.3-0.8,0.6-1.5,0.7-2.1l0.4-1.4l0,0l-0.5-0.2c-0.8-0.4-1.2-1-1.7-1.9
			c-0.1-0.2-0.2-0.5-0.3-0.8c-0.1-0.5,0-1,0.1-1.4c0.2-0.6,0.8-0.9,1.3-1c1.2-0.2,2.3,0.3,2.6,1.7v0.2c0.1,0.6,0,1.2-0.1,1.8
			c-0.1,0.3-0.1,0.5-0.1,0.6s0.4,0.1,0.6,0.1c0.5-0.1,0.9-0.2,1.5-0.5c0.3-0.2,0.5-0.6,0.9-1.2l0.1-0.1c0-0.1,0.1-0.2,0.3-0.2
			c0.1,0,0.2,0,0.3,0c0.5,0.1,0.6,0.3,0.6,0.3c0,0.1,0,0.5-0.1,0.6s-0.1,0.3-0.1,0.5c-0.1,0.3-0.2,0.7-0.3,1.2L63,52.4
			c-0.2,0.9-0.1,0.9-0.2,1.7c0,0.8,0,1.6,0.1,2.4c0.2,1.3,0.6,2.4,1.8,2.2c0.3-0.1,0.5-0.2,0.9-0.5c0.3-0.2,0.4-0.5,0.9-1.2
			c0.2-0.4,0.4-0.9,0.6-1.3c0.3-0.7,0.6-1.2,0.7-1.8c0.2-0.4,0.2-0.5,0.5-0.6c0.1,0,0.1,0,0.2,0c0.3,0,0.4,0.2,0.4,0.3s0,0.1,0,0.3
			c0,0.1-0.2,0.5-0.2,0.5c0,0.1-0.1,0.2-0.1,0.2c-0.3,0.7-0.4,1.2-0.8,1.8c-0.4,0.8-0.6,1.4-0.8,1.6l-0.2,0.4
			c-0.5,0.7-0.7,0.9-1,1.1c-0.4,0.3-0.9,0.4-1.1,0.4s-0.3,0.1-0.4,0h-0.1c-0.2,0-0.5,0-0.7-0.2c-0.6-0.2-0.9-0.6-1.2-1.1
			c-0.3-0.5-0.6-1.2-0.7-1.9l-0.1-0.4l-0.1-0.9c-0.1-0.8-0.1-1.6,0-2.2l0.1-0.7c0.1-0.3,0.1-0.7,0.2-1c-0.2,0-0.3,0.1-0.4,0.2
			l-0.2,0.1c-0.2,0.1-0.4,0.1-0.5,0.2c-0.2,0-0.4,0-0.5,0.1c-0.3,0.1-0.6,0.1-0.9,0L58.8,52C58.9,53,58.6,54.1,58.5,54.3z
			 M57.6,47.8c-0.1,0-0.1,0-0.2,0c-0.5,0.1-0.6,0.7-0.6,1.1V49c0.1,0.5,0.5,1.3,0.8,1.6c0.1,0.1,0.4,0.3,0.8,0.4
			c0.1-0.4,0.3-1,0.3-1c0-0.3,0-0.7-0.1-0.8C58.6,48.5,58.2,47.8,57.6,47.8z"/>
		<path class="st0" d="M74.8,55.6c0.2-0.4,0.5-0.9,0.7-1.3c0.3-0.7,0.6-1.2,0.8-1.8c0.1-0.4,0.2-0.6,0.4-0.6c0.1,0,0.1,0,0.2,0
			c0.3,0,0.4,0.2,0.4,0.3s0,0.2,0,0.4L77,53.4c-0.2,0.5-0.4,1-0.8,1.7c-0.4,0.8-0.6,1.2-0.8,1.5l-0.3,0.5c-0.5,0.7-0.8,1-1.2,1.3
			c-0.3,0.1-0.5,0.2-0.7,0.3c-0.1,0-0.3,0-0.4,0c-0.9,0-1.4-0.1-2-0.9c-0.3-0.3-0.5-0.8-0.7-1.1c-0.1-0.3-0.2-0.6-0.2-0.9
			c-0.1-0.4-0.1-0.8-0.1-1v-0.2c-0.1-0.5-0.1-1.7,0-1.9l0,0c0,0,0-0.1-0.1-0.1l0,0c-0.1,0.1-0.1,0.4-0.1,0.4
			c-0.2,0.5-0.3,1.1-0.4,1.4c-0.1,0.3-0.2,0.4-0.4,0.4c-0.1,0-0.2,0-0.3,0c-0.2,0-0.4-0.1-0.4-0.3c0-0.1,0-0.2,0-0.3
			c0.1-0.1,0.1-0.4,0.2-0.6c0.3-0.9,0.4-1.3,0.7-2.3c0.1-0.5,0.2-0.8,0.3-1.4c0.1-0.7,0.1-0.9,0.2-1.7c0-0.3,0.1-0.4,0.1-0.5l0,0
			c0.1-0.2,0-0.3,0.1-0.4c0.1-0.2,0.2-0.3,0.4-0.3c0.1,0,0.2,0,0.3,0c0.2,0,0.4,0,0.5,0.1s0.2,0.2,0.2,0.3c0,0,0,0.1,0,0.2L71,49.1
			c0,0.2-0.4,3.8,0,6v0.1c0.1,0.5,0.3,1.5,0.9,2.1c0.3,0.3,0.8,0.3,1,0.2c0.2,0,0.5-0.1,1-0.5C74.2,56.5,74.3,56.3,74.8,55.6z
			 M69.7,43.6c0-0.2,0-0.3,0-0.5s0-0.3,0.1-0.4c0,0,0-0.1,0.1-0.2c0.1-0.2,0.3-0.3,0.6-0.4c0.2,0,0.6,0,0.8,0.1
			c0.2,0.2,0.4,0.4,0.4,0.6c0.1,0.5-0.2,1.2-0.8,1.3C70.2,44.4,69.8,44.1,69.7,43.6z"/>
		<path class="st0" d="M81.7,57.2c-0.3,0.1-0.6,0.1-0.9,0.1c-0.8,0.1-1.9-0.2-2.6-0.7c-1.2-1-1.7-2.4-1.9-3.5
			c-0.1-0.3-0.1-0.6-0.1-0.8c0-0.3,0-0.5,0-0.8c0-0.1,0-0.3,0-0.5c0-0.1,0-0.3,0-0.5c0-0.1,0-0.2,0.1-0.3c0.4-2.4,1.9-4.2,2.2-4.5
			c0.2-0.2,0.4-0.4,0.7-0.6c0.3-0.3,0.7-0.3,0.8-0.3c0.1,0,0.2-0.1,0.7-0.2c0.8-0.1,1.2,0,1.7,0.3c0.3,0.3,0.6,0.7,0.7,1.2
			c0.1,0.3,0.1,0.8,0,1.1c-0.3,1.2-0.7,2.2-1.8,3.5c-0.5,0.6-0.9,1-1.5,1.4l-0.2,0.2c-0.3,0.2-0.6,0.2-1,0.5
			c-0.1,0.1-0.2,0.2-0.3,0.3c-0.1,0.1-0.3,0.1-0.4,0.2l-0.1,0.1c0,0.1-0.1,0.1,0,0.2c0.2,1.2,1,1.9,1.6,2.2c0.2,0.1,0.3,0.2,0.5,0.2
			c0.3,0.1,0.9,0.1,1.1,0c0.2,0,0.4,0,0.6-0.1c0.5-0.1,1-0.3,1.4-0.5c0.8-0.5,1.4-1.1,1.9-1.9c0.2-0.3,0.5-0.9,0.7-1.3
			c0.3-0.6,0.5-1,0.7-1.7c0.1-0.3,0.1-0.4,0.4-0.4c0.1,0,0.1,0,0.3,0c0.3,0,0.4,0.1,0.4,0.3c0,0.1,0,0.2,0,0.3l-0.2,0.5
			c-0.3,0.9-0.5,1.3-0.9,2c-0.4,0.9-0.7,1.4-1,1.6L85.1,55c-0.6,0.8-1.1,1.1-2,1.6C82.8,56.9,82.3,57.1,81.7,57.2z M77.7,52.3
			c0.2-0.2,0.7-0.3,0.8-0.5c1.1-0.9,1.5-1,2.1-1.9c0.2-0.4,0.5-0.8,0.7-1.1c0.4-0.7,0.5-1.6,0.4-2.4c-0.1-0.3-0.4-0.7-0.7-0.6
			c-0.3,0.1-0.4,0.1-0.5,0.2c-0.1,0.1-0.2,0.1-0.2,0.1s-1,0.4-1.8,2c-0.2,0.2-0.2,0.3-0.3,0.5c-0.2,0.4-0.3,0.8-0.5,1.2
			c-0.2,0.7-0.1,0.9-0.1,0.9c0,0.1-0.1,0.3-0.1,0.5c0,0.1,0,0.2,0,0.3c0,0.4-0.1,0.4,0,0.7v0.2L77.7,52.3z"/>
		<path class="st0" d="M87.9,49.1L87.2,51c-0.2,0.4-0.2,0.5-0.5,0.6c-0.1,0-0.1,0-0.2,0c-0.3,0-0.4-0.2-0.4-0.3s0-0.1,0-0.3
			c0-0.1,0.2-0.5,0.2-0.5c0-0.1,0.1-0.1,0.1-0.2c0.3-0.8,0.6-1.5,0.7-2.1l0.4-1.4l0,0L87,46.6c-0.8-0.4-1.2-1-1.7-1.9
			c-0.1-0.2-0.2-0.5-0.3-0.8c-0.1-0.5,0-1,0.1-1.4c0.2-0.6,0.8-0.9,1.3-1c1.2-0.2,2.3,0.3,2.6,1.7v0.2c0.1,0.6,0,1.2-0.1,1.8
			c-0.1,0.3-0.1,0.5-0.1,0.6s0.4,0.1,0.6,0.1c0.5-0.1,0.9-0.2,1.5-0.5c0.3-0.2,0.5-0.6,0.9-1.2l0.1-0.1c0-0.1,0.1-0.2,0.3-0.2
			c0.1,0,0.2,0,0.3,0c0.5,0.1,0.6,0.3,0.6,0.3c0,0.1,0,0.5-0.1,0.6s-0.1,0.3-0.1,0.5c-0.1,0.3-0.2,0.7-0.3,1.2l-0.2,0.7
			c-0.2,0.9-0.1,0.9-0.2,1.7c0,0.8,0,1.6,0.1,2.4c0.2,1.3,0.6,2.4,1.8,2.2c0.3-0.1,0.5-0.2,0.9-0.5c0.3-0.2,0.4-0.5,0.9-1.2
			c0.2-0.4,0.4-0.9,0.6-1.3c0.3-0.7,0.6-1.2,0.7-1.8c0.2-0.4,0.2-0.5,0.5-0.6c0.1,0,0.1,0,0.2,0c0.3,0,0.4,0.2,0.4,0.3s0,0.1,0,0.3
			c0,0.1-0.2,0.5-0.2,0.5c0,0.1-0.1,0.2-0.1,0.2c-0.3,0.7-0.4,1.2-0.8,1.8c-0.4,0.8-0.6,1.4-0.8,1.6l-0.2,0.4
			c-0.5,0.7-0.7,0.9-1,1.1c-0.4,0.3-0.9,0.4-1.1,0.4s-0.3,0.1-0.4,0h-0.1c-0.2,0-0.5,0-0.7-0.2c-0.6-0.2-0.9-0.6-1.2-1.1
			c-0.3-0.5-0.6-1.2-0.7-1.9l-0.1-0.4l-0.1-0.9c-0.1-0.8-0.1-1.6,0-2.2l0.1-0.7c0.1-0.3,0.1-0.7,0.2-1c-0.2,0-0.3,0.1-0.4,0.2
			l-0.2,0.1c-0.2,0.1-0.4,0.1-0.5,0.2c-0.2,0-0.4,0-0.5,0.1c-0.3,0.1-0.6,0.1-0.9,0l-0.4-0.1C88.3,47.9,88,48.9,87.9,49.1z M87,42.6
			c-0.1,0-0.1,0-0.2,0c-0.5,0.1-0.6,0.7-0.6,1.1v0.1c0.1,0.5,0.5,1.3,0.8,1.6c0.1,0.1,0.4,0.3,0.8,0.4c0.1-0.4,0.3-1,0.3-1
			c0-0.3,0-0.7-0.1-0.8C88,43.3,87.6,42.6,87,42.6z"/>
	</g>
</g>
<g>
</g>
<g>
</g>
<g>
</g>
<g>
</g>
<g>
</g>
<g>
</g>
<g>
</g>
<g>
</g>
<g>
</g>
<g>
</g>
<g>
</g>
<g>
</g>
<g>
</g>
<g>
</g>
<g>
</g>
</svg>
