<?xml version="1.0" encoding="utf-8"?>
<!-- Generator: Adobe Illustrator 19.1.0, SVG Export Plug-In . SVG Version: 6.00 Build 0)  -->
<svg version="1.1" id="Layer_1" xmlns="http://www.w3.org/2000/svg" xmlns:xlink="http://www.w3.org/1999/xlink" x="0px" y="0px"
	 viewBox="0 0 88.5 93.7" style="enable-background:new 0 0 88.5 93.7;" xml:space="preserve">
<style type="text/css">
	.st0{fill:#1D1E1C;}
</style>
<g>
	<path class="st0" d="M41.2,54.1c-0.9-0.5-1.7-0.1-2.8,0.1c-1.3,0.2-1.3,2-0.3,3.2c0.8,0.9,1.8,1.3,2.9,1.8c0.9,0.4,1.8,1,2.8,1.2
		c0.8,0.2,1.6-0.7,1.4-1.5c-0.2-1-0.8-1.7-1.5-2.4C42.9,55.6,42.1,54.6,41.2,54.1z"/>
	<path class="st0" d="M53.8,52.5c-0.3-0.7-0.6-1.3-0.7-2c-0.3-1.2-0.3-2.5-1.5-3.2c-1-0.6-2.3-0.5-3,0.5c-1.6,2.4,1.1,6.3,3.7,6.7
		C53.5,54.8,54.3,53.5,53.8,52.5z"/>
	<path class="st0" d="M63.1,43c-1.7-0.2-2.7,1.2-2.6,2.8c0.1,1,0.1,2,0.2,3c0.1,0.9,0.9,1.6,1.8,1.7c1.1,0.1,2-0.7,2.2-1.8
		c0.2-1,0.4-2,0.6-3.1C65.5,44.4,64.3,43.2,63.1,43z"/>
	<path class="st0" d="M54.7,63.3c-0.6-0.4-1.3-0.5-2-0.2c-0.8,0.4-1.4,1.3-1.2,2.2c0.2,1.1,0.9,1.6,1.7,2.3c0.5,0.4,1,0.9,1.4,1.4
		c0.9,1.2,3.1,0.3,2.7-1.2c-0.2-0.8-0.5-1.5-0.9-2.2C55.9,64.8,55.5,63.7,54.7,63.3z"/>
	<path class="st0" d="M53.5,76.2c-0.7,0-1.4,0.1-1.9,0.7c-0.5,0.7-0.6,1.8-0.1,2.4c0.7,0.9,1.5,1.1,2.5,1.3c0.6,0.2,1.3,0.3,1.9,0.6
		c1.3,0.7,2.9-1.2,1.9-2.3c-0.5-0.6-1.1-1.1-1.8-1.6C55.3,77,54.4,76.3,53.5,76.2z"/>
	<path class="st0" d="M61.9,56.3c-0.8,0.1-1.5,0.7-1.8,1.5c-0.4,1-0.1,1.8,0.2,2.7c0.2,0.6,0.3,1.1,0.7,1.6c0.4,0.5,1.2,0.8,1.8,0.7
		c0.7-0.1,1.2-0.6,1.5-1.2c0.2-0.5,0.3-1.1,0.4-1.6c0.1-0.2,0.1-0.5,0.1-0.7c0-0.3,0-0.5,0-0.8c-0.1-0.5-0.3-0.9-0.6-1.3
		C63.7,56.4,62.6,56.2,61.9,56.3z"/>
	<path class="st0" d="M72.5,48c-0.5,0.6-0.5,1.5-0.6,2.3s-0.1,1.5,0,2.3s0.9,1.5,1.6,1.5c1,0.1,1.8-0.7,2-1.6c0-0.2,0-0.2,0-0.2
		c0-0.1,0-0.2,0.1-0.2c0.1-0.3,0.2-0.5,0.3-0.8c0.3-0.7,0.7-1.5,0.5-2.3s-0.6-1.4-1.4-1.7C74,46.9,73.1,47.3,72.5,48z"/>
	<path class="st0" d="M63.9,71c-0.8-0.1-1.6,0.4-1.8,1.1c-0.3,0.8-0.2,1.6,0.2,2.4c0.4,0.6,0.8,1.1,1.4,1.6s1.5,0.4,2.1-0.1
		c0.8-0.6,0.7-1.6,0.2-2.4l0,0c0,0,0,0,0-0.1s-0.1-0.2-0.1-0.3s0-0.2,0-0.3c0-0.2-0.1-0.4-0.2-0.6c-0.1-0.1-0.1-0.2-0.2-0.3
		C65,71.5,64.6,71.1,63.9,71z"/>
	<path class="st0" d="M66.2,74.4L66.2,74.4C66.1,74.2,66.1,74.2,66.2,74.4z"/>
	<path class="st0" d="M43.8,67.7c-1-0.7-2.2-1.7-3.4-2.1c-2.6-0.8-4,2.3-2.1,4c0.8,0.7,2.1,1,3.1,1.3s2.1,0.7,3,1.3
		c1.4,0.9,2.8-0.7,1.9-2C45.6,69.1,44.8,68.3,43.8,67.7z"/>
	<path class="st0" d="M73.6,60.1c-0.8-0.1-1.7,0.3-2.2,0.9c-0.6,0.8-0.6,1.7-0.6,2.6c0,0.6,0,1.2,0.2,1.8s0.9,1.1,1.5,1.2
		c0.7,0.1,1.3-0.2,1.8-0.8c0.4-0.4,0.6-1,0.8-1.5c0.1-0.2,0.2-0.4,0.3-0.7c0.1-0.3,0.2-0.5,0.2-0.8c0.1-0.5-0.1-0.9-0.2-1.4
		C75.2,60.8,74.3,60.2,73.6,60.1z"/>
	<path class="st0" d="M76.8,13c-0.6-0.9-1.6-1.4-2.7-1.4c-3.3,0.1-5.8,0.9-8.2,2.9c0.1-2.4,0.3-4.9-0.2-7.2c0-0.1-0.1-0.3-0.1-0.4
		c-0.1-0.7-0.5-1.4-1.1-1.9c-1.2-1-3.1-0.9-4.2,0.4c-1.9,2.3-4.1,4-6.2,5.4c-0.8,0.2-1.5,0.7-2,1.3l-1,0.7c-0.9,0.6-1.8,1.2-2.6,1.8
		c-0.6,0.4-1.5,1.1-2.5,2c-0.4-0.4-0.9-0.9-1.4-1.3c-2.2-2-4.4-2.5-6.3-2.9c-1.2-0.3-2.4-0.6-3.7-1.3c-3.1-1.8-4.5-4.2-6.2-7.3
		c-0.2-0.3-0.4-0.7-0.6-1c-0.1-1-0.7-1.9-1.6-2.4c-1.7-1-4.1-0.2-4.8,1.7c-2.3,6.2-4.1,12-3.2,18.3h-0.1c0,0.1,0.1,0.2,0.1,0.3
		c0.2,1.4,0.6,2.8,1.1,4.3c0.2,0.7,0.5,1.3,0.8,1.9c-1.1,0.4-2.2,0.7-3.3,1.1c-4.6,1.6-8.5,3-13.4,2.6c-1.7-0.1-3.2,1.2-3.4,2.9
		c-0.1,1.1,0.4,2.2,1.3,2.9c0.3,0.2,0.6,0.4,0.9,0.6c5,5.9,12.6,10.3,19.6,11.1c0.7,0.1,1.4,0.1,2.1,0.1c-1.1,1.7-1.9,3.5-2.8,5.6
		c-3.5,8-0.5,16.5,8.1,23.3c3.1,2.4,6.5,4.2,9.8,6c1.1,0.6,2.2,1.2,3.3,1.8c1.1,0.6,2.2,1.2,3.3,1.9c2.7,1.6,5.6,3.2,8.6,4.6
		c4.5,1.9,11.4,3.4,16.3,1.2c1.7-0.8,3-1.9,3.9-3.3c2.7-2.3,4.2-6.2,5.4-9.7c0.4-1,0.7-1.9,1.1-2.8l0.7-1.7
		c3.3-7.8,6.7-15.9,6.9-24.9c0.2-10.2-5.4-17.8-15.5-21c-0.2-0.1-0.3-0.1-1-0.2v-0.1c-0.1,0-0.5-0.1-1.3-0.2c1-1,2-2.1,2.8-3.6
		c0.8-1.4,1.1-2.6,1.4-3.8c0.1-0.4,0.2-0.8,0.3-1.2c0.1-0.2,0.3-0.6,0.5-0.9c0.5-0.8,1.2-1.8,1.3-3.1C77.4,14.7,77.2,13.8,76.8,13z
		 M18.4,32.3c1.4-0.5,2.8-1,4.3-1.4c0.5-0.1,1-0.3,1.6-0.4l0.5-0.1c3.5,3.1,7.7,5.3,11.9,6.3c-6.7,0.8-15.9-0.2-22.6-2.9
		C15.5,33.3,17,32.8,18.4,32.3z M61.2,14.5c-0.1,1.2-0.1,2.4-0.1,3.6c-0.3,4.1-1.8,7.5-4.2,9.5c-0.7,0.5-1.4,0.9-2.1,1.3
		c2.7-6.3,2.7-10.6,2.5-14.4c1.3-0.9,2.7-2,4.1-3.3C61.3,12.2,61.2,13.3,61.2,14.5z M51.1,18.4c0.9-0.6,1.7-1.2,2.6-1.7l0.3-0.2
		c0,3.5-0.4,7.4-3.2,13c-0.3,0-0.5,0-0.8,0c0.3-2.5-0.2-5.5-1.5-8.9C49.4,19.8,50.2,19,51.1,18.4z M37.2,16.9
		c1.7,0.4,2.8,0.7,4.2,1.8c1,0.9,1.8,1.7,2.5,2.5c1,2.4,1.4,4.3,1.6,5.8c-3-0.8-6.3-2.6-9.1-5.1c-1.2-1.1-4.3-4.1-5.7-7.9
		c0.5,0.4,1,0.7,1.6,1.1C34.1,16.2,35.8,16.6,37.2,16.9z M24.7,6.9c0.6,1.1,1.3,2.2,2,3.2c-0.1,6.8,5.5,12.5,7.4,14.2
		c3.3,3,7.3,5.1,10.9,5.9c-0.4,1.4-1.2,1.9-1.4,2c-6.1,1.4-17.8-3.7-20.8-12.8C22.4,15.3,23.3,11.3,24.7,6.9z M9.3,34.9
		c5.9,3.5,14.6,5.3,22.2,5.3c-1.1,0.8-2,1.5-2.6,2c-2.5,0.9-4.7,1.2-6.5,1c-5.3-0.6-11.1-3.7-15.3-8C7.9,35.1,8.6,35,9.3,34.9z
		 M83.9,49.6c-0.2,8.1-3.2,15.4-6.5,23.2l-0.7,1.7c-0.4,0.9-0.8,2-1.1,3c-1.2,3.1-2.3,6.4-4.2,7.8L71,85.6L70.8,86
		c-0.5,0.8-1.1,1.4-2.1,1.8c-3.3,1.5-8.7,0.4-12.5-1.2c-2.8-1.2-5.4-2.7-8.1-4.3c-1.1-0.6-2.2-1.3-3.3-1.9c-1.1-0.6-2.3-1.2-3.4-1.8
		c-3.3-1.7-6.3-3.3-9.1-5.5c-4-3.1-10.2-9.6-6.7-17.7c1.7-4,3.2-6.6,6.3-9.4l0.5-0.4c1.7-1.4,5.8-4.4,14.9-8.5
		c0.1,0,0.2-0.1,0.3-0.1c8.8-4,16.8-4.3,20.9-4.1c0.2,0,0.3,0,0.5,0.1c1.3,0.2,2.6,0.3,3,0.4C79.8,35.8,84.1,41.6,83.9,49.6z
		 M70.8,18.4c-0.1,0.5-0.2,0.9-0.3,1.3c-0.2,1-0.4,1.7-0.9,2.5c-0.7,1.2-1.7,2.2-2.6,3.2c-0.8,0.8-1.5,1.6-2.2,2.5
		c-0.7,0-1.4,0.1-2.2,0.1c1.3-1.9,2.2-4,2.7-6.5c0.8-0.6,1.3-1,1.8-1.7c0.2-0.2,0.5-0.5,0.8-0.9c1.2-1.3,2.3-2,3.7-2.4
		C71.3,17.2,71,17.7,70.8,18.4z"/>
</g>
<g>
</g>
<g>
</g>
<g>
</g>
<g>
</g>
<g>
</g>
<g>
</g>
<g>
</g>
<g>
</g>
<g>
</g>
<g>
</g>
<g>
</g>
<g>
</g>
<g>
</g>
<g>
</g>
<g>
</g>
</svg>
